<svg xmlns="http://www.w3.org/2000/svg" viewBox="0 0 700 700"><defs><style>.a{fill:#e9f0f5;}.b{fill:#605036;}.c{fill:#3f3a34;}.d{fill:#1e1c19;}.e{fill:#feffff;}.f{fill:#212228;}.g{opacity:0;}.h{fill:red;}</style></defs><path class="a" d="M165.32,307c-1.63,6.35.49,16.78,6.19,21.83,4,1.88,8.7-1.4,21.24-9.12-.08-1.12-.18-2.22-.33-3.28C188.78,305.73,170.28,304.23,165.32,307Z"/><path class="a" d="M253.61,279.67c-.33,3.91,1,9.45,1.63,12.06,7.49,5.21,10.42,6.84,13.68,7.16,15.64,0,41.38-18.89,44.31-22.8,1.3-4.24,3.58-10.43,3.58-13C293.35,268.59,253.28,270.22,253.61,279.67Z"/><path class="b" d="M305,265.49c-7.85,1.52-18.57,3.44-29.78,5.65-3.11,12.17,3.71,19,7.53,21.82a18.31,18.31,0,0,0,2.72,1c8-3.25,16.76-7.88,22.78-13.15C309.34,274.54,308.15,269.51,305,265.49Z"/><path class="b" d="M169.68,312.16c-.88,9.38,4.42,14.38,7,16.06a9,9,0,0,0,.94.28c2.76,0,6-1.05,10.76-6.07a12.82,12.82,0,0,0,1.05-3.21,22.09,22.09,0,0,0-.2-4.3C182.5,312.05,174.84,311.21,169.68,312.16Z"/><path class="c" d="M278.92,270.42l-3.68.72c-3.11,12.17,3.71,19,7.53,21.82a18.31,18.31,0,0,0,2.72,1l1.53-.64c-.76-.51-1.54-1.07-2-1.33C282.12,289.41,276,282,278.92,270.42Z"/><path class="c" d="M305,265.49l-1.8.35c2.19,4.22,3.24,10,1.58,17.06,0,.08-.08.38-.15.78,1.29-.93,2.51-1.88,3.62-2.86C309.34,274.54,308.15,269.51,305,265.49Z"/><path class="c" d="M187.55,314.25c0,1.21.08,2.59,0,3.3a12.53,12.53,0,0,1-3.39,7.48c-1,.61-1.93,1.15-2.79,1.62a5.68,5.68,0,0,1-4.54-.83c-2-1.54-5-6.24-5.06-13.94-.74.07-1.45.16-2.12.28-.88,9.38,4.42,14.38,7,16.06a9,9,0,0,0,.94.28c2.76,0,6-1.05,10.76-6.07a12.82,12.82,0,0,0,1.05-3.21,22.09,22.09,0,0,0-.2-4.3C188.7,314.68,188.13,314.46,187.55,314.25Z"/><path class="d" d="M291,272.61c-5.41,1.55-4.88,12.57,3.25,11.28C301.17,282.78,299.11,270.29,291,272.61Z"/><path class="d" d="M179.39,312.06c-2.26,2-1.44,8.28,2.87,7.33,2.6-.57,2.9-4.4,1.53-6.56A39.45,39.45,0,0,0,179.39,312.06Z"/><path class="e" d="M281.69,285.74c-2.79-2.38-9.13-.16-8.27,2.74C274.13,290.88,284.47,288.12,281.69,285.74Z"/><path class="e" d="M171,316.77c-.23,3.81,6.38,2.29,5.46.3S171.07,314.69,171,316.77Z"/><path class="f" d="M249.75,275.22c-4.6,1.87-.64,4.48,1.27,8.68-1.17,6.09-5.63,11.55-7.11,12.65,2.83-.72,5.44-1.46,7.85-2.2-1,3.84-3.34,4.76-2.35,8.37,4.2.73,2.22-3.77,8.5-4.5,4.2.73,9.63,2.06,15.22,1.33,23.05-5.82,30.25-13.74,42.12-24.65,1.59-2.72,2.71-6.47,3.34-13.85C281.75,268.89,260.42,270.89,249.75,275.22Zm62.91-1c-5.77,12.36-38.75,23-42.75,23.29a18.92,18.92,0,0,1-8.31-6.66c10.38-4.18,14.78-7.95,15.81-9.34,2.11-.9,3.35-3,7.5-3.83,14.27-4.21,26.43-9.18,29.43-13.42C314.34,268,313.59,270.55,312.66,274.26Z"/><path class="f" d="M172,328.69a17,17,0,0,1-5.77-9.14c5.41-2.09,11-5.83,12.27-7.48a39,39,0,0,1,13.89,4.4,33.83,33.83,0,0,0-1.67-6.92,4.36,4.36,0,0,0-1.65-2.78c-9.92-2.72-25.57-4.08-30.1-2.72a15.91,15.91,0,0,0-.5,5.25c1.07.95,1.74,1.51,2.37,2.1-1.08,4.29-4.54,7.77-7.79,8.24a14.53,14.53,0,0,0,8.5,1.25,21.82,21.82,0,0,0,3.6-.94c1.5,5.18,3.2,11.21,5.4,11.6,10.15,1.8,15.89-8.32,22.23-10.75,0-.35,0-.7-.06-1.05C180.21,327.47,176,330.57,172,328.69Z"/><g class="g"><path class="h" d="M699,1V699H1V1H699m1-1H0V700H700V0Z"/></g></svg>