<svg xmlns="http://www.w3.org/2000/svg" viewBox="0 0 700 700"><defs><style>.a{fill:#e9f0f5;}.b{fill:#53b8e3;}.c{fill:#377da8;}.d{fill:#234b82;}.e{fill:#feffff;}.f{fill:#6d5c57;}.g{opacity:0;}.h{fill:red;}</style></defs><path class="a" d="M164.59,311.55c-.63,3.38.91,11.25,7.44,17.14,3.85,1.82,7.88-1,19.39-8.12a3.12,3.12,0,0,1,1.33-.81,41.93,41.93,0,0,0-.79-5.91C183.23,308.57,168.88,312.33,164.59,311.55Z"/><path class="a" d="M318.59,261.55c-6,2-33.9,10.21-58,15.52-5.27,1.23-5.55,8-4.44,14.05,1.85,4.17,6.29,6.07,11.11,8.35,4.44-.38,42.8-13.25,49.22-27.33C318.86,267.54,318.59,265.73,318.59,261.55Z"/><path class="b" d="M164.59,311.55a14.41,14.41,0,0,0,.57,6.15,15.92,15.92,0,0,0,6.21,8.23c6.71,2.46,11.82-3.67,12.75-9a21.74,21.74,0,0,0-.2-4.34C176.52,311.51,167.84,312.14,164.59,311.55Z"/><path class="b" d="M294.78,270.19c-9,2.52-19.89,5.33-30.87,7.7a12.62,12.62,0,0,0-2.31,1.91,20.26,20.26,0,0,0,7.83,11.49c10.67,5,22-2.33,25-9.66A23.62,23.62,0,0,0,294.78,270.19Z"/><path class="c" d="M181.33,312.28c0,.82,0,1.69-.08,2.65-.88,6.87-5.75,11.37-10.72,8.26-1.93-1.48-4.73-4.59-5-11.51h.1c-.4,0-.77-.08-1.07-.14a14.41,14.41,0,0,0,.57,6.15,15.92,15.92,0,0,0,6.21,8.23c6.71,2.46,11.82-3.67,12.75-9a21.74,21.74,0,0,0-.2-4.34C183.07,312.46,182.2,312.36,181.33,312.28Z"/><path class="c" d="M294.41,268.91c-9.89,2.57-21.76,5.49-33.24,8a19.76,19.76,0,0,0,8.26,14.34c10.67,5,22-2.33,25-9.66C295.66,276.71,295.6,272.51,294.41,268.91Zm-4.23,10.44c-2.44,7-11.64,14.09-20.31,9.29a19.85,19.85,0,0,1-6.26-10.54l.3-.21c9.43-2,18.77-4.39,26.94-6.62A29.83,29.83,0,0,1,290.18,279.35Z"/><path class="d" d="M171.15,309.63c-3.14,1.17-2.6,8.85,2.13,7.8C177.31,316.54,175.84,307.87,171.15,309.63Z"/><path class="d" d="M273.67,273.28c-5.41,1.54-4.88,12.57,3.24,11.27C283.84,283.45,281.77,271,273.67,273.28Z"/><path class="e" d="M167,318c-.05,1.72,6.29,1.51,5.18-.53S167.09,316,167,318Z"/><path class="e" d="M270.69,284.74c-2.79-2.38-9.13-.16-8.27,2.74C263.13,289.88,273.47,287.12,270.69,284.74Z"/><path class="f" d="M172,328.69a23,23,0,0,1-7.46-13.84,43.81,43.81,0,0,0,6.3-3c6.68.09,16.14.14,21.32,3.26a32.46,32.46,0,0,0-1.44-5.57,4.36,4.36,0,0,0-1.65-2.78c-9.92-2.72-25.58-4.08-30.1-2.72a16.18,16.18,0,0,0-.51,5.22h0a13.4,13.4,0,0,1-1.35,2.07h0A12.27,12.27,0,0,1,155.5,313l-.05,0c-.26.21-.52.4-.79.58l-.13.09a9.26,9.26,0,0,1-.86.48l-.09,0a8.09,8.09,0,0,1-.76.31l-.22.07a6.87,6.87,0,0,1-.85.19,14.53,14.53,0,0,0,8.5,1.25c.51-.08,1-.2,1.59-.33l.25-.07c.52-.14,1.06-.3,1.6-.48,1.89,5.11,4,15.55,6.89,16.38,9,2.61,15.55-8.16,22.23-10.71,0-.37,0-.73-.06-1.09C180.21,327.47,176,330.57,172,328.69Z"/><path class="f" d="M249.75,275.22c-4.07,1.65-1.44,3.88.54,7.29a11.07,11.07,0,0,1-.59,1l-.18.25-.5.69-.23.28c-.17.22-.36.43-.54.64s-.13.15-.2.23c-.51.55-1,1.06-1.52,1.52l-.2.18-.51.45-.22.19c-.16.13-.31.25-.44.37l-.17.13-.49.38c2.48-.42,5-1,7.39-1.64h0a5.24,5.24,0,0,1,0,.56c1.4,10.18-3.89,9.91-2.5,15,4.2.73,2.22-3.77,8.5-4.5,4.2.73,9.63,2.06,15.22,1.33,23.05-5.82,30.25-13.74,42.12-24.65,1.59-2.72,2.71-6.47,3.34-13.85C281.75,268.89,260.42,270.89,249.75,275.22Zm62.91-1c-5.77,12.36-38.75,23-42.75,23.29-4.33-2-7.58-4.66-9.25-8.33a34.1,34.1,0,0,1-.48-4.63c6.7-2.35,11.84-4.72,13.16-5.16,4.13-1.78,11.37-5.12,17-8,10.84-3,19.68-5.67,24-7.11C314.34,268,313.59,270.55,312.66,274.26Z"/><g class="g"><path class="h" d="M699,1V699H1V1H699m1-1H0V700H700V0Z"/></g></svg>