<svg xmlns="http://www.w3.org/2000/svg" viewBox="0 0 700 700"><defs><style>.a{fill:#e9f0f5;}.b{fill:#c48347;}.c{fill:#593830;}.d{fill:#feffff;}.e{fill:#694239;}.f{opacity:0;}.g{fill:red;}</style></defs><path class="a" d="M317.46,262.3c-6,2-32.77,9.46-56.83,14.77-5.27,1.23-5.55,8-4.44,14.05,1.85,4.17,6.29,6.07,11.11,8.35,4.44-.38,32.57-19.36,48-26.75C317.64,268.13,317.46,266.47,317.46,262.3Z"/><path class="a" d="M190.91,310.07c-8-4.58-23.66-6.25-27.16-5.52-.49,11.83,1,20.52,7.32,25.51,9.54-7.15,17.45-9.26,21.6-11.44A36,36,0,0,0,190.91,310.07Z"/><path class="b" d="M306,265.68c-8.58,2.4-20.53,5.56-32.82,8.51a19.63,19.63,0,0,0,8.3,15.1,17.68,17.68,0,0,0,3,1.09c7.12-4.27,15.33-9.28,22.53-13.28A20.24,20.24,0,0,0,306,265.68Z"/><path class="b" d="M170.88,306.78a10.7,10.7,0,0,0-.51,1.77c-1,9.59,4.36,14.68,7,16.38,6.71,2.46,11.82-3.67,12.75-9a22.28,22.28,0,0,0-.12-3.79A61.8,61.8,0,0,0,170.88,306.78Z"/><path class="c" d="M276.9,273.27l-3.77.92a19.63,19.63,0,0,0,8.3,15.1,17.68,17.68,0,0,0,3,1.09l4.21-2.53a12.19,12.19,0,0,1-5.09-1.54A19.75,19.75,0,0,1,276.9,273.27Z"/><path class="c" d="M306,265.68l-1.79.5a26.79,26.79,0,0,1-.31,10.84,14.62,14.62,0,0,1-1.15,2.49c1.44-.83,2.87-1.64,4.25-2.41A20.24,20.24,0,0,0,306,265.68Z"/><path class="c" d="M188.88,311.63a19.13,19.13,0,0,1,0,2c-.87,6.88-5.75,11.38-10.71,8.27-2.2-1.69-5.54-5.49-4.91-14.64a.43.43,0,0,1,0-.1c-.81-.13-1.62-.24-2.44-.34a10.7,10.7,0,0,0-.51,1.77c-1,9.59,4.36,14.68,7,16.38,6.71,2.46,11.82-3.67,12.75-9a22.28,22.28,0,0,0-.12-3.79C189.64,312,189.25,311.8,188.88,311.63Z"/><path class="c" d="M290.33,269.94c-5.41,1.55-4.88,12.58,3.25,11.28C300.51,280.11,298.44,267.63,290.33,269.94Z"/><path class="c" d="M180.15,311.29c-3.14,1.18-2.6,8.86,2.13,7.81C186.31,318.21,184.84,309.54,180.15,311.29Z"/><path class="d" d="M283,279.48c-3.36-3.33-11-.24-9.94,3.83C274,286.66,286.39,282.81,283,279.48Z"/><path class="d" d="M167,318c-.08,2.43,8.72,2.08,7.18-.78S167.14,315,167,318Z"/><path class="e" d="M170.89,311.85c6.75,0,16,.11,21.56,4.81a34.71,34.71,0,0,0-1.7-7.11,4.36,4.36,0,0,0-1.65-2.78c-9.92-2.72-25.58-4.08-30.1-2.72a16.18,16.18,0,0,0-.51,5.22c-1.56,3-4.21,5.17-6.74,5.53a14.53,14.53,0,0,0,8.5,1.25,20.49,20.49,0,0,0,3.44-.88c.2.57.41,1.2.62,1.88a18.35,18.35,0,0,1-.07-2.07A43.4,43.4,0,0,0,170.89,311.85Z"/><path class="e" d="M192.5,317.16c-18.27,4.94-19.72,8.11-22.59,10.89a17.41,17.41,0,0,1-3.82-4.89c1.27,4.25,2.71,8.2,4.49,8.39,7.57.83,15.09-8.92,22.22-10.92C192.74,319.44,192.64,318.29,192.5,317.16Z"/><path class="e" d="M318.59,261.05c-36.84,7.84-57.34,10.5-67,15.84-3.59,2-2.38,3.19-1.09,5.59-1.17,2.88-4.6,5.27-6,6.32,2.49-.42,5-1,7.4-1.64,0,.18,0,.37,0,.56,1.4,10.18-3.89,9.91-2.5,15,4.2.73,2.22-3.77,8.5-4.5,4.2.73,10.34,4.14,15.22,1.33,16.78-9.66,22.11-13.68,42.12-23.33C316.83,273.49,319.25,266.22,318.59,261.05Zm-6,10.5c-25.17,6.5-39.33,25.34-43.33,25.67-4.34-2-6.92-4.33-8.59-8a34.1,34.1,0,0,1-.48-4.63c6.7-2.35,11.84-4.72,13.16-5.16,3.52-1.51,9.3-4.17,14.43-6.72,12.26-2.71,22.48-5.1,27.14-6.66C314.91,269.72,314.21,270.22,312.58,271.55Z"/><g class="f"><path class="g" d="M699,1V699H1V1H699m1-1H0V700H700V0Z"/></g></svg>