<svg xmlns="http://www.w3.org/2000/svg" viewBox="0 0 700 700"><defs><style>.a{fill:#e9f0f5;}.b{fill:#ffdb33;}.c{fill:#403100;}.d{fill:#feffff;}.e{fill:#7d1717;}.f{opacity:0;}.g{fill:red;}</style></defs><path class="a" d="M318.59,261.55c-6,2-33.87,7.37-58,15.52-5.27,1.23-5.55,8-4.44,14.05,1.85,4.17,6.29,6.07,11.11,8.35,4.44-.38,34-19.15,49.22-27.33C318.86,267.54,318.59,265.73,318.59,261.55Z"/><path class="a" d="M165.1,305.19c-2.06,9.23-1,20.2,6,25.2,12.76-1.83,9.31-6.28,21.67-10.84A42.27,42.27,0,0,0,192,314C184.37,309.37,170.5,305.18,165.1,305.19Z"/><path class="b" d="M284.91,270.69c-7.38,1.85-17.46,5-22.72,6.66A15.47,15.47,0,0,0,268,290.43c7.51,3.85,15.83-3,17.94-8.65C287.08,276.94,286.63,273.53,284.91,270.69Z"/><path class="b" d="M174.73,305.3c-3.31-.54-7.45,1.13-7.91,6.94,0,7.4,4.16,10.87,6.16,12,5,1.37,8.15-3.71,8.43-7.86C181.13,310.52,178.61,307,174.73,305.3Z"/><path class="c" d="M284.91,270.69l-2,.51c.8,2.33.83,5.82.11,9.54-1.71,5.43-8.2,10.85-14.3,7.15a16.65,16.65,0,0,1-4.4-11.21l-2.15.67A15.47,15.47,0,0,0,268,290.43c7.51,3.85,15.83-3,17.94-8.65C287.08,276.94,286.63,273.53,284.91,270.69Z"/><path class="c" d="M174.73,305.3c-3.31-.54-7.45,1.13-7.91,6.94,0,7.4,4.16,10.87,6.16,12,5,1.37,8.15-3.71,8.43-7.86C181.13,310.52,178.61,307,174.73,305.3Zm-2.29,16.32c-1.47-.89-3.76-3-3.84-8.83.2-3.84,3-5.65,5.36-5.16,2.91.89,4.71,2.45,4.77,8C178.53,320,175.71,323.21,172.44,321.62Z"/><path class="c" d="M272.35,275.61c-3.27.83-3.3,7.37,1.62,6.67C278.16,281.68,277.26,274.35,272.35,275.61Z"/><path class="c" d="M172.83,309.82c-1.91,1-1.84,7,1.08,6C176.41,314.92,175.69,308.3,172.83,309.82Z"/><path class="d" d="M280.58,278.89c-.73-2.47,15-6.36,17.33-4.34S281.19,280.92,280.58,278.89Z"/><path class="d" d="M178.85,318c-.35-2.23,5-2.91,7-.79S179.14,319.87,178.85,318Z"/><path class="e" d="M171.58,326.22c-5-4.5-5.47-8.34-6.16-11.69a47.59,47.59,0,0,0,5-2.4c6.3.46,15.22,1.14,22,4.47a34.29,34.29,0,0,0-1.69-7.05,4.36,4.36,0,0,0-1.65-2.78c-9.92-2.72-25.58-4.08-30.1-2.72a16.18,16.18,0,0,0-.51,5.22c-1.56,3-4.21,5.17-6.74,5.53a14.53,14.53,0,0,0,8.5,1.25,19.64,19.64,0,0,0,3-.73c.2,6.58,4.15,16.4,7.17,16.73,7.58.83,15.22-9.27,22.39-11.39,0-.59-.05-1.18-.1-1.75C173.15,324.37,175.66,328.14,171.58,326.22Z"/><path class="e" d="M249.75,275.22c-4.07,1.65-1.44,3.88.54,7.29a22.17,22.17,0,0,1-5.79,6.29,58.72,58.72,0,0,0,7.38-1.78c0,.23,0,.46,0,.7,1.4,10.18-3.89,9.91-2.5,15,4.2.73,2.22-3.77,8.5-4.5,4.2.73,8.77,4.92,14,2.83,21.29-8.5,24.5-17.5,45.5-26.5,1.59-2.73,2.88-7.62,3.5-15C282.91,268.55,260.42,270.89,249.75,275.22Zm61.66-1.67c-18.16,5-40.5,24-44.5,24.34-4.33-2-4.58-5-6.25-8.67a29.21,29.21,0,0,1-.47-5.22c6.65-2.78,11.74-5.68,13.06-6.11,5.59-2.4,16.89-6.68,22.23-9.46,5.58-1.44,11.55-2.79,18.86-4.13C314.34,268,312.33,269.85,311.41,273.55Z"/><g class="f"><path class="g" d="M699,1V699H1V1H699m1-1H0V700H700V0Z"/></g></svg>