<svg xmlns="http://www.w3.org/2000/svg" viewBox="0 0 700 700"><defs><style>.a{fill:#e9f0f5;}.b{fill:#5ce0ab;}.c{fill:#419e78;}.d{fill:#327a5d;}.e{fill:#fff;}.f{fill:#54401e;}.g{opacity:0;}.h{fill:red;}</style></defs><path class="a" d="M261.1,274.78c-5.27,1.24-6,10.26-4.91,16.34,1.85,4.17,6.13,5.33,10.94,7.61,9.77.16,41.21-9,47.73-24.27,2.34-4.59,2.6-7.88,2.6-12.06C311.46,264.4,285.16,269.47,261.1,274.78Z"/><path class="a" d="M164.5,305.25c-1.79,10.42.66,22.53,7.66,27.53,12.28-1.76,13.92-8.33,20.62-12.45a42.17,42.17,0,0,0-1.05-7.46C184.42,307.47,169.7,303.69,164.5,305.25Z"/><path class="b" d="M305.05,265.53c-9.12,1.84-21.95,4.32-29.71,5.19-3.37,12.43,3.57,19.35,7.43,22.24a17,17,0,0,0,6.47,1.61c6.43-2.28,13.55-7.25,18.47-11.16l.06-.12C309.62,275.87,308.56,270.06,305.05,265.53Z"/><path class="b" d="M172.82,306.25a9.72,9.72,0,0,0-3.11,5.59c-1.05,9.59,4.36,14.68,7,16.38,6.71,2.46,11.82-3.67,12.75-9a18.23,18.23,0,0,0-1.67-9.11A40.79,40.79,0,0,0,172.82,306.25Z"/><path class="c" d="M285.2,292a21.09,21.09,0,0,1-6.2-21.72c-1.31.18-2.54.35-3.66.47-3.37,12.43,3.57,19.35,7.43,22.24a17,17,0,0,0,6.47,1.61c.85-.3,1.72-.65,2.59-1A12.12,12.12,0,0,1,285.2,292Z"/><path class="c" d="M305.05,265.53l-1.47.3c2.51,4.28,3.36,10.11,1.93,16.86a15.59,15.59,0,0,1-2.09,4c1.55-1.11,3-2.21,4.29-3.24l.06-.12C309.62,275.87,308.56,270.06,305.05,265.53Z"/><path class="c" d="M186.88,309.67a19.47,19.47,0,0,1,.7,7.88c-.87,6.88-5.75,11.38-10.72,8.27-2.19-1.69-5.53-5.49-4.9-14.64a9.64,9.64,0,0,1,1.94-4.84l-1.08-.09a9.72,9.72,0,0,0-3.11,5.59c-1.05,9.59,4.36,14.68,7,16.38,6.71,2.46,11.82-3.67,12.75-9a18.23,18.23,0,0,0-1.67-9.11Z"/><path class="d" d="M291,272.61c-5.41,1.55-4.88,12.57,3.25,11.28C301.17,282.78,299.11,270.29,291,272.61Z"/><path class="d" d="M179.15,311.59c-3.14,1.17-2.6,8.85,2.13,7.8C185.31,318.5,183.84,309.83,179.15,311.59Z"/><path class="e" d="M281.69,285.74c-2.79-2.38-9.13-.16-8.27,2.74C274.13,290.88,284.47,288.12,281.69,285.74Z"/><path class="e" d="M167.7,319.37c-.12,3.85,7.33,2.55,6.21.52S167.76,317.28,167.7,319.37Z"/><path class="f" d="M266.64,265.34c5.76-1.3,47.17-4.29,52.34-6.3-9.59.59-46.48,3.47-53.86,3.91s-17.81,6.95-16.94,13C254.26,268.16,261.32,266.53,266.64,265.34Z"/><path class="f" d="M188.67,305.08c-8.69-9.12-31.28-12.59-30.41-3.91C163,294.66,183,301.17,188.67,305.08Z"/><path class="f" d="M171.73,329.84c-6.22-5.61-6.31-9.56-7.24-15.41a30.25,30.25,0,0,0,5.54-5c4.6-1.38,11.9-.67,22.33,6.64a33.38,33.38,0,0,0-1.61-6.55c0-.89-.68-1.87-1.8-2.93-14.07-4.5-25.28-4-29.95-2.57a15.91,15.91,0,0,0-.5,5.25l1.16,1c-1.66,3.06-7.19,6.63-9.22,6.93,1.49.85,8.51-.66,10-1a9.25,9.25,0,0,0,3-1.14c.85,5.27,4.45,18.64,7.47,18.64,13.17,0,16.77-10,22-12.76,0-.4,0-.79-.07-1.19C180.44,327.76,176.64,332.26,171.73,329.84Z"/><path class="f" d="M251,277.5c-1.88,2.91-1.42,3.74-.62,5-2,1.83-5.21,3.36-7,4.37a16.4,16.4,0,0,0,8.49.24c0,.21,0,.41,0,.64,1.4,10.18-3.89,9.91-2.5,15,4.2.73,2.22-3.77,8.5-4.5,4.2.73,9.63,2.06,15.22,1.33,23.05-5.82,29.63-10.49,41.51-21.4,1.58-2.73,3.32-9.72,3.95-17.1C279.89,269.46,257.3,267.73,251,277.5Zm11.95.43c14.33-8.68,47-7.38,51.39-13.63a59.52,59.52,0,0,1-1.87,12.55c-5.78,12.36-38.56,20.37-42.56,20.7-4.33-2-7.58-4.66-9.25-8.33C259.26,282.49,259.69,281,263,277.93Z"/><g class="g"><path class="h" d="M699,1V699H1V1H699m1-1H0V700H700V0Z"/></g></svg>