<svg xmlns="http://www.w3.org/2000/svg" viewBox="0 0 700 700"><defs><style>.a{fill:#e9f0f5;}.b{fill:#a85edd;}.c{fill:#7c429b;}.d{fill:#613489;}.e{fill:#feffff;}.f{fill:#3d264f;}.g{opacity:0;}.h{fill:red;}</style></defs><path class="a" d="M191.64,312.51c-7.35-5.93-21.95-9.74-26.21-5.47-3.15,9.77-.05,20.41,6.95,25.41,11.93-1.71,14.88-9.1,20.4-12.12A41.23,41.23,0,0,0,191.64,312.51Z"/><path class="a" d="M260.94,274.62c-5.28,1.24-5.86,10.42-4.75,16.5,1.85,4.17,8.41,5.17,13.22,7.45,4.44-.38,36.32-8,43.66-21.34a31.6,31.6,0,0,0,3.09-14C310.16,265.22,273.64,269.73,260.94,274.62Z"/><path class="b" d="M177.7,304.76c-4.53-1.17-10.74.45-11.9,6.76-1.05,9.58,4.36,14.67,7,16.37,6.71,2.47,11.82-3.67,12.75-9C186.82,309.64,182.91,306.39,177.7,304.76Z"/><path class="b" d="M292.11,268c-8.95.85-23.62,4.35-31.88,7.14-1,9.9,4.79,15.62,8.2,18.18,10.26,5.93,22-2.34,25-9.67C295,277.3,294.47,272.16,292.11,268Z"/><path class="c" d="M177.7,304.76c-4.53-1.17-10.74.45-11.9,6.76-1.05,9.58,4.36,14.67,7,16.37,6.71,2.47,11.82-3.67,12.75-9C186.82,309.64,182.91,306.39,177.7,304.76Zm5.54,12.47c-.88,6.87-5.75,11.37-10.72,8.26-2.19-1.68-5.54-5.49-4.91-14.64.81-6,5.6-6.66,9.33-5.44C181.61,307.15,183.86,308.48,183.24,317.23Z"/><path class="c" d="M292.11,268c-.86.08-1.78.2-2.74.32a27.94,27.94,0,0,1,.5,14.4c-2.43,7-11.31,13.84-20,9-3.31-1.89-7.73-8.29-7.23-17.4l-2.44.78c-1,9.9,4.79,15.62,8.2,18.18,10.26,5.93,22-2.34,25-9.67C295,277.3,294.47,272.16,292.11,268Z"/><path class="d" d="M173.66,307.87c-3.55,1.46-2.92,11.1,2.45,9.8C180.68,316.57,179,305.68,173.66,307.87Z"/><path class="d" d="M273.08,272.5c-5.41,1.55-4.88,12.57,3.25,11.28C283.25,282.67,281.19,270.18,273.08,272.5Z"/><path class="e" d="M167.2,312.65c-.36,4.21,6.22,2.31,5.38.15S167.39,310.35,167.2,312.65Z"/><path class="e" d="M262.71,280.45c-1.95,3.44,7.17,4.95,7.82.53S265.07,276.29,262.71,280.45Z"/><path class="f" d="M187.15,304.11c-8.69-9.13-29.76-11.62-28.89-2.94C163,294.66,181.5,300.2,187.15,304.11Z"/><path class="f" d="M266.64,265.34c5.76-1.3,47.17-4.29,52.34-6.3-9.59.59-46.48,3.47-53.86,3.91s-17.81,6.95-16.94,13C254.26,268.16,261.32,266.53,266.64,265.34Z"/><path class="f" d="M251,277.5c-1.88,2.91-1.42,3.74-.62,5-2,1.83-5.21,3.36-7,4.37a19.43,19.43,0,0,0,8.2-1.77,10.13,10.13,0,0,1,.31,2.65c1.4,10.18-3.89,9.91-2.5,15,4.2.73,2.22-3.77,8.5-4.5,4.2.73,9.63,2.06,15.22,1.33,23.05-5.82,29.63-10.49,41.51-21.4,1.58-2.73,3.32-9.72,3.95-17.1C279.89,269.46,257.3,267.73,251,277.5Zm11.95.43c14.33-8.68,47-7.38,51.39-13.63a59.52,59.52,0,0,1-1.87,12.55c-5.78,12.36-38.56,20.37-42.56,20.7-4.33-2-7.58-4.66-9.25-8.33C259.26,282.49,259.69,281,263,277.93Z"/><path class="f" d="M192.82,321c0-.4,0-.79-.07-1.19-12.31,8-16.11,12.46-21,10-5.42-4.88-6.68-11.88-6.6-16.06a41.52,41.52,0,0,0,5.85-5.7c4.35-.75,11.22.74,21.38,8a33.72,33.72,0,0,0-1.61-6.53c0-.89-.68-1.87-1.8-2.93-14.07-4.5-25.28-4-29.95-2.57a15.91,15.91,0,0,0-.5,5.25l1.16,1c-1.66,3.06-7.19,6.63-9.22,6.93,1.49.85,8.51-.66,10-1a8.28,8.28,0,0,0,2.87-1.2c.52,6.17,4.49,18.7,7.56,18.7C184,333.75,187.63,323.76,192.82,321Z"/><g class="g"><path class="h" d="M699,1V699H1V1H699m1-1H0V700H700V0Z"/></g></svg>