<svg xmlns="http://www.w3.org/2000/svg" viewBox="0 0 700 700"><defs><style>.a{fill:#e9f0f5;}.b{fill:red;}.c{fill:#7f0000;}.d{fill:#fff;}.e{fill:#593c40;}.f{opacity:0;}</style></defs><path class="a" d="M318.59,261.55c-6,2-17.91,9.16-42.83,19.91-9.12,4.56-20,8-20,11.24,1.85,4.18,3.09,4.24,10.91,6.19,4.44-.38,46.07-.93,51-24.11C318.93,267.94,318.59,265.73,318.59,261.55Z"/><path class="a" d="M192.51,317.25c-7.51-2.61-22.33-6.84-27.68-5.65-2.77,8.14,1.63,14.17,5,19.71,12.58-1.8,17.68-8,22.84-12.06C192.67,318.57,192.59,317.9,192.51,317.25Z"/><path class="b" d="M305.94,266.78c-6.76,3.83-22.72,11.86-31,14.86a20.25,20.25,0,0,0,7.8,11.32c10.37,5.39,22.64-1.72,25-9.67C309.46,276.53,308.73,271.11,305.94,266.78Z"/><path class="b" d="M169.85,311.24c0,.2-.11.4-.14.6-1.05,9.59,4.36,14.68,7,16.38,6.71,2.46,11.82-3.67,12.75-9a24,24,0,0,0-.14-3.94A104.51,104.51,0,0,1,169.85,311.24Z"/><path class="c" d="M305.94,266.78l-1.53.85c1.81,4,2.36,9.13,1.1,15.06-1.89,7.57-11.64,14.09-20.31,9.28-2.43-1.61-5.4-6-6.38-11.86-1.4.59-2.7,1.11-3.85,1.53a20.25,20.25,0,0,0,7.8,11.32c10.37,5.39,22.64-1.72,25-9.67C309.46,276.53,308.73,271.11,305.94,266.78Z"/><path class="c" d="M187.36,315.05a16.28,16.28,0,0,1,.22,2.5c-.87,6.88-5.75,11.38-10.72,8.27-2.06-1.59-5.06-5.82-4.88-13.92-.77-.22-1.49-.44-2.13-.66,0,.2-.11.4-.14.6-1.05,9.59,4.36,14.68,7,16.38,6.71,2.46,11.82-3.67,12.75-9a24,24,0,0,0-.14-3.94Z"/><path class="c" d="M291,272.61c-5.41,1.55-4.88,12.57,3.25,11.28C301.17,282.78,299.11,270.29,291,272.61Z"/><path class="c" d="M177.56,314.31c-1.05,2.59.11,6.88,3.72,6.08,2-.45,2.66-2.86,2.19-4.93C181.46,315.12,179.45,314.73,177.56,314.31Z"/><path class="d" d="M284.67,286.62c-2.48-2.7-10-.17-9.08,2.73C276.63,292.7,287.86,290.11,284.67,286.62Z"/><path class="d" d="M167.38,319.85c-.11,3.85,7.18,2.27,6.53,0C173,316.81,167.45,317.76,167.38,319.85Z"/><path class="e" d="M192.68,318.72c-13.65,8.4-16.5,11.93-20.65,10-4.82-4.34-6.18-7-7.32-10.46a20.64,20.64,0,0,0,5.65-3.05c6,.89,14,1.95,22.24,2.82q-.18-1.71-.48-3.33a6.68,6.68,0,0,0-1.5-.46C172.38,310.73,164,302.55,159,304.05a15.91,15.91,0,0,0-.5,5.25,12.94,12.94,0,0,1,2.19,2.42c-1.54,3.8-6.66,5.51-9.81,6,2.25,1.25,8.6,1.8,10.85,1.3.35-.05.69-.12,1-.19.86,6,4.29,14.55,6.79,15,10.67,1.78,16.79-9.86,23.27-12.78C192.79,320.21,192.74,319.46,192.68,318.72Z"/><path class="e" d="M323.46,260.81a30.2,30.2,0,0,0,.3-6.12c-35.84,17.16-58.45,27.11-67.76,33.89-2.39,1.73-3.91,1.73-3.91,4.77,0,7.85-4.07,4.28-2.68,9.37,4.2.73,2.22-3.77,8.5-4.5,4.2.73,8.73,2.08,15.22,1.33,23-2.67,33.11-5.28,45-16.19,1-1.68,3.14-9.78,4.51-17.23,4.17-1.89,7.64-4.16,9.61-6.44C328.43,260.05,325.86,260.6,323.46,260.81Zm-11,18.21c-5.41,15.84-36.4,16.61-40.4,16.94-4.58-.29-11.95.65-13.25-1.95a69.84,69.84,0,0,1,6.95-3c14.42-6.34,30.8-14.3,41.05-20.41a52,52,0,0,0,8.14-1.64A45.24,45.24,0,0,1,312.47,279Z"/><path class="e" d="M250.78,286.84c6.52-6.52,64.08-27.37,75.15-35.51C305.73,262.08,251.22,278.59,250.78,286.84Z"/><path class="e" d="M156.85,299.54c2.6,1.63,27,9.13,35.84,12.71C189.75,309,174.44,304.11,156.85,299.54Z"/><g class="f"><path class="b" d="M699,1V699H1V1H699m1-1H0V700H700V0Z"/></g></svg>