<svg xmlns="http://www.w3.org/2000/svg" viewBox="0 0 700 700"><defs><style>.a{fill:#e9f0f5;}.b{fill:#ff9100;}.c{fill:#7f0000;}.d{fill:#feffff;}.e{fill:#84001c;}.f{opacity:0;}.g{fill:red;}</style></defs><path class="a" d="M318.59,261.55c-6,2-17.91,9.16-42.83,19.91-9.12,4.56-20,8-20,11.24,1.85,4.18,3.09,4.24,10.91,6.19,4.44-.38,46.07-.93,51-24.11C318.93,267.94,318.59,265.73,318.59,261.55Z"/><path class="a" d="M192.51,317.25c-7.51-2.61-22.33-6.84-27.68-5.65-2.77,8.14,1.63,14.17,5,19.71,12.58-1.8,17.68-8,22.84-12.06C192.67,318.57,192.59,317.9,192.51,317.25Z"/><path class="b" d="M265.19,286.32a21.9,21.9,0,0,0,6.06,6.86c10.38,5.39,22.65-1.73,25-9.67,1.25-5,1.17-9.26-.08-12.9C287.59,274.94,273.7,282,265.19,286.32Z"/><path class="b" d="M164.86,309.72c-.05.2-.11.4-.15.6-1,9.59,4.36,14.68,7,16.38,6.71,2.46,11.82-3.67,12.75-9a22,22,0,0,0-.14-3.94A104.21,104.21,0,0,1,164.86,309.72Z"/><path class="c" d="M294.07,271.67a27.38,27.38,0,0,1-.5,10.61c-1.89,7.57-11.64,14.09-20.31,9.28a14,14,0,0,1-4.81-6.88l-3.26,1.64a21.9,21.9,0,0,0,6.06,6.86c10.38,5.39,22.65-1.73,25-9.67,1.25-5,1.17-9.26-.08-12.9Z"/><path class="c" d="M182.36,313.52a18,18,0,0,1,.23,2.51c-.88,6.88-6.55,11.49-11.52,8.38-2.06-1.59-5.43-7.38-4.09-14-.77-.22-1.48-.44-2.12-.66-.05.2-.11.4-.15.6-1,9.59,4.36,14.68,7,16.38,6.71,2.46,11.82-3.67,12.75-9a22,22,0,0,0-.14-3.94Z"/><path class="c" d="M171,313.44c-1,2.6.11,6.88,3.72,6.08,2-.45,2.66-2.86,2.2-4.92C174.94,314.26,172.94,313.86,171,313.44Z"/><path class="c" d="M273.78,282.68c.3,3,2.48,5.71,6.76,5,4.7-.75,5.25-6.74,2.6-9.79Z"/><path class="d" d="M297.92,282.71c-2.48-2.7-10-.16-9.08,2.73C289.88,288.79,301.11,286.2,297.92,282.71Z"/><path class="d" d="M178.89,320.5c-.11,3.85,7.18,2.27,6.54,0C184.54,317.46,179,318.41,178.89,320.5Z"/><path class="e" d="M323.46,260.81a30.2,30.2,0,0,0,.3-6.12c-35.84,17.16-58.45,27.11-67.76,33.89-2.39,1.73-3.91,1.73-3.91,4.77,0,7.85-4.07,4.28-2.68,9.37,4.2.73,2.22-3.77,8.5-4.5,4.2.73,8.73,2.08,15.22,1.33,23-2.67,33.11-5.28,45-16.19,1-1.68,3.14-9.78,4.51-17.23,4.17-1.89,7.64-4.16,9.61-6.44C328.43,260.05,325.86,260.6,323.46,260.81Zm-11,18.21c-5.41,15.84-36.4,16.61-40.4,16.94-4.58-.29-11.95.65-13.25-1.95a69.84,69.84,0,0,1,6.95-3c14.42-6.34,30.8-14.3,41.05-20.41a52,52,0,0,0,8.14-1.64A45.24,45.24,0,0,1,312.47,279Z"/><path class="e" d="M250.78,286.84c6.52-6.52,64.08-27.37,75.15-35.51C305.73,262.08,251.22,278.59,250.78,286.84Z"/><path class="e" d="M156.85,299.54c2.6,1.63,27,9.13,35.84,12.71C189.75,309,174.44,304.11,156.85,299.54Z"/><path class="e" d="M192.68,318.72c-13.65,8.4-16.5,11.93-20.65,10-4.82-4.34-6.18-7-7.32-10.46a20.64,20.64,0,0,0,5.65-3.05c6,.89,14,1.95,22.24,2.82q-.18-1.71-.48-3.33a6.68,6.68,0,0,0-1.5-.46C172.38,310.73,164,302.55,159,304.05a15.91,15.91,0,0,0-.5,5.25,12.94,12.94,0,0,1,2.19,2.42c-1.54,3.8-6.66,5.51-9.81,6,2.25,1.25,8.6,1.8,10.85,1.3.35-.05.69-.12,1-.19.86,6,4.29,14.55,6.79,15,10.67,1.78,16.79-9.86,23.27-12.78C192.79,320.21,192.74,319.46,192.68,318.72Z"/><g class="f"><path class="g" d="M699,1V699H1V1H699m1-1H0V700H700V0Z"/></g></svg>