<svg xmlns="http://www.w3.org/2000/svg" viewBox="0 0 700 700"><defs><style>.a{fill:#2a2c33;}.b{opacity:0;}.c{fill:red;}</style></defs><path class="a" d="M446,342.28c1.83-2.27,2.44-4.85,0-6.76,1.45-3.14-1.3-3.1-2.1-6.48-.71-3-.37-3.86-.71-5.79-.75-4.25-3.07-7.23-3.84-12-1-6.22-.26-11.15-2.13-17.74-.81-2.85-1.46-6.89-.69-9.74-.65,0-1.65-.25-2.43-.27,1.68-1.49,1.64-3.66,2.5-5.28-.83-.16-1.63-.66-2.65-.8.95-1.13,1.2-3.56,2-4.66-.78-.09-1.71-.58-2.61-.66.63-2.92,7.08-11.57.72-12.69-.49-3.93,2.34-11.72-1.2-13.4.78-2,.74-4.44,1-6.44-.64-.12-1.22,0-1.85-.13.27-3.28.89-6.57.47-9.86-1.83,3.54-2.59,9.49-5.76,11.28-.56-4.19-1.33-8.35-1.59-12.58-4.24,3.28-4.7,8.06-5.85,12.91-2.2,9.22-8.82,18.69-9.31,28.16,12.2-7.88,6.65,7.19,6.56,14.76.61-1.32,1.58-2.47,2.16-3.8-.93,6.05-3.7,12.21-3.46,18.34,1.81-.73,3.92-.2,6-.38,0,5.08-2.22,10-1.78,15.24.69-.6,1.73-1.09,2.45-1.78-.76,4.69-2.67,9.71-3.83,14.45a14.81,14.81,0,0,1,2.52-.55c-.94,4.29-3.51,8.43-4.53,12.45,1.12.17,1.92.87,3.17.87-.58.64-.9,2.36-2,3.21,1,1.14.79,3,1.34,3.95-.88.19-1.69.64-2.52.83.8,2.51,2.61,4.64,3.19,7.11-.83.2-1.63.73-2.53.92,2.35,2.34,2.92,5.62-.62,6.75.29,1.27-.48,3.14-.19,4.4-.63.1-1.2,0-1.82.14.58,4.11,1.93,10.22-.85,13.48-.85-.83-3-1.37-3.8-2.24-.22,4.32-2.2,10.69-7.34,10.74.34,4.07-2.7,12.08-6.66,13.4.29,1.3-.48,3.15-.2,4.47-3.86.7-4.91,4.63-6,8-3.85.15-7.33.88-8,5.23-.77-1.07-2.58-1.69-3.25-2.5-.4,1.6-1.91,2.71-2.08,4.63-2.7-1.23-4.7-.75-4.65,2.57-3.37-4.86-8.34-6.46-12.21-10.14a59.91,59.91,0,0,0-1.72-6.13c.51.35.68.8,1.24,1.05-.57-7.77-5.76-9.71-12.51-12.63-1.41-.61-10.26-3.43-11.37-3.36-3.39.19-5.26,4.27-8.39,5.08-2.59.66-3.27-1.55-5.59-1s-2.23,3.13-4.2,3.8c-.74.24-1.67-.86-2.5-.51-3.23,1.36-7.88,2.5-10.8,3.47-.3.09-2.31,2.12-3.14,2.46s-2.76-1.32-3.93-1.2c-2.45.27-4.46,1.1-7.33,1.26s-7.79-1-8.88,2c-.57-.39-2.44-.74-3.31-1.37a12.28,12.28,0,0,0-1.38,2c-4.3.13-7.17,1.05-11.78.88-.29.43-.09,1.34-.2,1.84-3.89-2.41-10.34.77-15.65.16.39,1.13.09,2.11.33,3.15a31.74,31.74,0,0,0-9.15-.48c.2,1.32-.49,3.19-.22,4.48a12.5,12.5,0,0,0-5.21-1.25h-4.67c-3.43.49-4.6,3.91-4,7.9a16.13,16.13,0,0,1-1.19-1.9c-.41,1.57-1.67,2.42-2.2,3.19-.58-1.28-1.27-1.48-1.81-2.31-.64,1.85-1.84,3.53-1.65,5.7-.33-.88-.86-1.77-1.15-2.64-2.13,2-2.36,4.87-1.88,7.81-1.12,1.48-.91,3.42,0,5.47a7.12,7.12,0,0,1,2,1.44l0,.09a.09.09,0,0,1,0-.05,10.54,10.54,0,0,1,.84.92,6.83,6.83,0,0,1,.25,1.49,7.22,7.22,0,0,0,.81.08c1.77,3,2.88,6.78,4.54,9.48,3.68,5.95,7.35,8.13,9.5,15.21,1.62,5.36,4.43,9.67,6.51,14.46s3,10.2,5,15.36c.28,1.49.75,3,1,4.34.65-.19.67-.48,1.22-.56-.45,2.91-.13,5.86,2.7,6.53.09,3.94.86,6.78.2,10.61,6.74-3.79,13.3,9.2,17.88-.13,1.09,1.67,3.43,2.94,4.7,4.37,2.87-4.71,7.08,0,8.47-4.84.66,1.33,2,1.74,2.7,2.6.51-.86,1.25-1.65,1.67-2.55,2.82,2.24,17.54-2.25,18-4.67.47,0,1.51,1,1.85,1.2a9.63,9.63,0,0,1,1.85-2.55,18.85,18.85,0,0,0,1.52,2c1-2.45,4.24-5.64,7.66-7.8,11.63,2.1,32.31-18.64,39.59-23.61,22-15,44.12-29.95,65.52-46,17.73-13.3,23.86-21.12,23.86-42.08,0-9.29,1.12-16.52,2-25.12C447.39,362.8,449.72,348.71,446,342.28ZM349.13,447.47a7,7,0,0,1-1.27-.39c.55,2.89.47,5.7-1.43,7.73a13.67,13.67,0,0,1-1.72-.54,6.24,6.24,0,0,1-7.36,5.35c.31,1.27-.51,3.26-.2,4.53-.79,0-1.69.18-2.47.15.28,1.26-.5,3.09-.2,4.35-2.69-.39-4.31.68-4.69,3.52-3.89-.57-4.45,3-7.11,4.07a17.5,17.5,0,0,1-.84,7.27c-3.47-1.65-6.43-2.82-8.07.17-2.73-1.46-5.89-1.09-9.86-.83-16.55,1.09-16.62-9.14-21.17-21.56-.16.47-.59,1.49-.81,2-.39-1.74-2-3.18-2.5-4.41a28.09,28.09,0,0,0-3,7.24c-2.7-1.71-2.15-1.23-4.7-.19a24.62,24.62,0,0,0-1.84-2.2c-.43,1.27-2.21,2.94-2.65,4.21-1.12-1.56-3.2-2.33-4.55-3-.21,1.57-1.44,2.92-1.59,4.52-1.08-.78-2.82-1.43-3.79-3,1.56,5.24,2,14.38-3.42,17.78l-4.37,1.87c-.71-2-1.89-3.34-3.54-2.73a15.77,15.77,0,0,0-.24-9.1,14.64,14.64,0,0,0-1.73,1.06c-.78-3.92-14.17-27.65-19.79-34.22.89-.8,1.4-1.77,1.81-4.07,1.37,1.09,1.94.54,3.1,1-.2-1.29.48-3.08.23-4.32,1.49,2.14,1.62.88,3.25,1.68.17-2.07,1-4.27,1.29-6.29.48.65,1,1.34,1.34,1.76.12-1.3.91-2.86.79-4.5a31.75,31.75,0,0,0,1.88,2.68c1.44-5.6,8.93-2.26,13.21-1.56,0-.77.19-1.6.17-2.39,2.65,1.91,6,3,5.95-1.31,3.23,1.13,5.2-1.4,7.32-1.25,2.54.17,5.29,1.46,8,2.36-.34-1.08.13-3-.09-4,2.16.32,4.66.77,6.72,1.21-.05-.79.15-1.7.13-2.49,2.67.13,5.3,1.41,7.91,1.82-.3-.77-.37-1.79-.61-2.47,4.69.37,9.14-.79,13.88-.87-.07-.91.28-2.08.15-3,1.23.83,3.33.86,4.53,1.72.15-.62.09-1.23.19-1.85,1.63.42,3.7.25,5.33,1.33,1.8-1.11,1.67-1.1,4.49-1.55.06-.37.13-.75.19-1.12.87,0,1.55.46,2.44.5a10.4,10.4,0,0,0,3.55-4.5,6.61,6.61,0,0,1,5.81,3.79c-.64.22-1.11-.05-1.71.08,4.19,1.45,10,1.71,14.47,2a28.69,28.69,0,0,0,3.08,0c1.94,4.1,3.7,8.27,5.09,12,1.05,2.83,1.35,7.63,1.82,11C350.3,441.3,348.78,444.06,349.13,447.47Z"/><g class="b"><path class="c" d="M699,1V699H1V1H699m1-1H0V700H700V0Z"/></g></svg>