<svg xmlns="http://www.w3.org/2000/svg" viewBox="0 0 700 700"><defs><style>.a{fill:#846424;}.b{opacity:0;}.c{fill:red;}</style></defs><path class="a" d="M233.25,414.55a12.5,12.5,0,0,1,5.21,1.25c-.27-1.29.42-3.16.22-4.48a31.74,31.74,0,0,1,9.15.48c-.24-1,.06-2-.33-3.15,5.31.61,11.76-2.57,15.65-.16.11-.5-.09-1.41.2-1.84,4.61.17,7.48-.75,11.78-.88a12.28,12.28,0,0,1,1.38-2c.87.63,2.74,1,3.31,1.37,1.09-3,6-1.81,8.88-2s4.88-1,7.33-1.26c1.17-.12,3.22,1.5,3.93,1.2s2.84-2.37,3.14-2.46c2.92-1,7.57-2.11,10.8-3.47.83-.35,1.76.75,2.5.5,2-.66,2-3.28,4.2-3.79s3,1.67,5.59,1c3.13-.81,5-4.89,8.39-5.08,1.11-.07,10,2.75,11.37,3.36,6.75,2.92,11.94,4.86,12.51,12.63-.56-.25-.73-.7-1.24-1.05.92,3,2.08,6.09,2,9-2.84.15-6.23-1.18-8.58-1.36-3.47-.26-7.17.4-10.68.14-4.43-.33-10.28-.59-14.47-2.05.6-.12,1.07.15,1.71-.07a6.61,6.61,0,0,0-5.81-3.79,10.4,10.4,0,0,1-3.55,4.5c-.89,0-1.57-.48-2.44-.5-.06.37-.13.75-.19,1.12-2.82.45-2.69.44-4.49,1.55-1.63-1.08-3.7-.91-5.33-1.33-.1.62,0,1.23-.19,1.85-1.2-.86-3.3-.89-4.53-1.72.13.92-.22,2.08-.15,3-4.74.08-9.19,1.24-13.88.87.24.68.31,1.7.61,2.47-2.61-.41-5.24-1.69-7.91-1.82,0,.79-.18,1.7-.13,2.49-2.06-.44-4.56-.89-6.72-1.21.22.95-.25,2.88.09,4-2.67-.9-5.42-2.19-8-2.37-2.12-.14-4.09,2.39-7.32,1.26.09,4.34-3.3,3.22-5.95,1.31,0,.79-.15,1.62-.17,2.39-4.28-.7-11.77-4-13.21,1.56-.46-.81-1.41-1.67-1.88-2.68.12,1.64-.67,3.2-.79,4.49-.36-.41-.86-1.11-1.34-1.75-.32,2-1.12,4.22-1.29,6.29-1.63-.8-1.76.46-3.25-1.68.25,1.24-.43,3-.23,4.32-1.16-.45-1.73.1-3.1-1-.52,2.93-1.2,3.71-2.64,4.71a9.89,9.89,0,0,1-1,3.11,39.46,39.46,0,0,1-4.55-.19c0-1.33-.85-2.89-.65-4.18-.15.63-.27,1.26-.45,1.82-1.61-4.48-4.07-11.17-.16-14.81.29.87.82,1.76,1.15,2.64-.19-2.17,1-3.85,1.65-5.7.54.83,1.23,1,1.81,2.31.53-.78,1.79-1.62,2.2-3.19a16.13,16.13,0,0,0,1.19,1.9c-.64-4,.53-7.41,4-7.9Z"/><g class="b"><path class="c" d="M699,1V699H1V1H699m1-1H0V700H700V0Z"/></g></svg>