<svg xmlns="http://www.w3.org/2000/svg" viewBox="0 0 700 700"><defs><style>.a{fill:#4d537c;}.b{opacity:0;}.c{fill:red;}</style></defs><path class="a" d="M336,487.2s-1.95-3.26-3.91-3.91a36.89,36.89,0,0,1-.65,5.21c0-1-3.58-3.58-6.19-5.53,0,0-.32,1.62-1,5.21-.65-1.31-4.56-3.26-6.51-3.91a28.73,28.73,0,0,1,.58,4.51c-.2-.37-.41-.74-.62-1.08-.05.17-5.17-5.39-7.45-5.71,0,0,1.95,1.63,2.6,5.54-.65-1.63-4.88-3.26-9-4.68-16.55,1.09-16.62-9.14-21.17-21.56-.16.47-.59,1.49-.81,2-.39-1.74-2-3.18-2.5-4.41a28.09,28.09,0,0,0-3,7.24c-2.7-1.71-2.15-1.23-4.7-.19a24.62,24.62,0,0,0-1.84-2.2c-.43,1.27-2.21,2.94-2.65,4.21-1.12-1.56-3.2-2.33-4.55-3-.21,1.57-1.44,2.92-1.59,4.52-1.08-.78-2.82-1.43-3.79-3,1.56,5.24,2,14.38-3.42,17.78l-4.66,2a26.84,26.84,0,0,0-1.33,3.92,31.69,31.69,0,0,0-1.46,3.31c-4.16,1.55-2.82,8.63-2.19,12.1.65-.19,1.63-2.44,2.18-2.52-.45,2.91-.13,5.86,2.7,6.53.09,3.94.86,6.78.2,10.61,6.74-3.79,13.3,9.2,17.88-.13,1.09,1.67,3.43,2.94,4.7,4.37,2.87-4.71,7.08,0,8.47-4.84.66,1.33,2,1.74,2.7,2.6.51-.86,1.25-1.65,1.67-2.55,2.82,2.24,17.54-2.25,18-4.67.47,0,1.51,1,1.85,1.2a9.63,9.63,0,0,1,1.85-2.55,18.85,18.85,0,0,0,1.52,2c1.62-4,8.77-9.92,13.26-10a14.2,14.2,0,0,0,.57-2.74,9.67,9.67,0,0,0,1.87.95c.65-2,1.63-2.77,5.05-2.77.65-2.28,1-2.94,4.89-3.59.65-2.6,2.44-2.11,4.07-2.77,2.61-1,.33-2.6,5.21-6.84C342.87,487.85,338.64,488.18,336,487.2Z"/><g class="b"><path class="c" d="M699,1V699H1V1H699m1-1H0V700H700V0Z"/></g></svg>