<svg xmlns="http://www.w3.org/2000/svg" viewBox="0 0 700 700"><defs><style>.a{fill:#4d537c;}.b{opacity:0;}.c{fill:red;}</style></defs><path class="a" d="M322,490.46a5.39,5.39,0,0,1-1.73,3.47c-.14-.51-.3-1-.46-1.51a29.19,29.19,0,0,0-.74-8.15,8.75,8.75,0,0,1-1.14,3.79c-.07-.12-.13-.25-.2-.36a11.17,11.17,0,0,0-3.38-3.67c-1-1.74-2.16-3.25-3.42-3.67a3,3,0,0,1,.72,2.54,15,15,0,0,0-3.68-.29,25.32,25.32,0,0,1-4.86-2.58,7.08,7.08,0,0,0-.09,2.86c-.8,0-1.57,0-2.3,0-1.73-1.48-2.69-3-3.8-3.85a8.85,8.85,0,0,0,1,3.6C287.26,481,286.65,472,282.74,461.29c-.16.47-.59,1.49-.81,2-.39-1.74-2-3.18-2.5-4.41a28.09,28.09,0,0,0-3,7.24c-2.7-1.71-2.15-1.23-4.7-.19a24.62,24.62,0,0,0-1.84-2.2c-.43,1.27-2.21,2.94-2.65,4.21-1.12-1.56-3.2-2.33-4.55-3-.21,1.57-1.44,2.92-1.59,4.52-1.08-.78-2.82-1.43-3.79-3,1.56,5.24,2,14.38-3.42,17.78l-4.66,2a26.84,26.84,0,0,0-1.33,3.92,31.69,31.69,0,0,0-1.46,3.31c-1.32,1.9.65,4.28,1.28,7.76,0,3.26,2,6.52-1,11.4A11.35,11.35,0,0,0,250,510c1.21,2.39,0,6.33-.67,10.16,6.74-3.79,13.3,9.2,17.88-.13a56.65,56.65,0,0,0,4,5.6c2.87-4.71,7.81-1.19,9.2-6.07.66,1.33,1.51,4.24,2.2,5.1.51-.86,1.75-4.15,2.17-5,2.82,2.24,17.54-2.25,18-4.67.47,0,1.51,1,1.85,1.2a9.63,9.63,0,0,1,1.85-2.55,18.85,18.85,0,0,0,1.52,2c1.62-4,9.37-10.08,13.86-10.2a35.22,35.22,0,0,0-.62-7.58A12.56,12.56,0,0,0,322,490.46Z"/><g class="b"><path class="c" d="M699,1V699H1V1H699m1-1H0V700H700V0Z"/></g></svg>