<svg xmlns="http://www.w3.org/2000/svg" viewBox="0 0 700 700"><defs><style>.a{fill:#a08652;}.b{opacity:0;}.c{fill:red;}</style></defs><path class="a" d="M446,342.28c1.83-2.27,2.44-4.85,0-6.76,1.45-3.14-1.3-3.1-2.1-6.48-.71-3-.37-3.86-.71-5.79-.75-4.25-3.07-7.23-3.84-12-1-6.22-.26-11.15-2.13-17.74-.81-2.85-1.46-6.89-.69-9.74-.65,0-1.65-.25-2.43-.27,1.68-1.49,1.64-3.66,2.5-5.28-.83-.16-1.63-.66-2.65-.8.95-1.13,1.2-3.56,2-4.66-.78-.09-1.71-.58-2.61-.66.63-2.92,7.08-11.57.72-12.69-.49-3.93,2.34-11.72-1.2-13.4.78-2,.74-4.44,1-6.44-.64-.12-1.22,0-1.85-.13.27-3.28.89-6.57.47-9.86-1.83,3.54-2.59,9.49-5.76,11.28-.56-4.19-1.33-8.35-1.59-12.58-4.24,3.28-4.7,8.06-5.85,12.91-2.2,9.22-8.82,18.69-9.31,28.16,12.2-7.88,6.65,7.19,6.56,14.76.61-1.32,1.58-2.47,2.16-3.8-.93,6.05-3.7,12.21-3.46,18.34,1.81-.73,3.92-.2,6-.38,0,5.08-2.22,10-1.78,15.24.69-.6,1.73-1.09,2.45-1.78-.76,4.69-2.67,9.71-3.83,14.45a14.81,14.81,0,0,1,2.52-.55c-.94,4.29-3.51,8.43-4.53,12.45,1.12.17,1.92.87,3.17.87-.58.64-.9,2.36-2,3.21,1,1.14.79,3,1.34,3.95-.88.19-1.69.64-2.52.83.8,2.51,2.61,4.64,3.19,7.11-.83.2-1.63.73-2.53.92,2.35,2.34,2.92,5.62-.62,6.75.29,1.27-.48,3.14-.19,4.4-.63.1-1.2,0-1.82.14.58,4.11,1.93,10.22-.85,13.48-.85-.83-3-1.37-3.8-2.24-.22,4.32-2.2,10.69-7.34,10.74.34,4.07-2.7,12.08-6.66,13.4.29,1.3-.48,3.15-.2,4.47-3.86.7-4.91,4.63-6,8-3.85.15-7.33.88-8,5.23-.77-1.07-2.58-1.69-3.25-2.5-.4,1.6-1.91,2.71-2.08,4.63-2.7-1.23-4.7-.75-4.65,2.57-3.69-5.32-9.3-6.73-13.29-11.24-2.8-3.17-5.65-8-8.47-9.56.22,3.05.09,1.84-.43,4.78-.5.08-3.65-3.5-3.91-3.47-.09.09.87,3.33.78,3.56a13.12,13.12,0,0,0-3.85.18c.57,1.91,2.57,3.47,3.94,5.16-.67-.43-3.92-.73-4.55-1.2a154.86,154.86,0,0,1,6.72,15.32c1.05,2.83,1.35,7.63,1.82,11,.39,2.75-1.13,5.51-.78,8.92a7,7,0,0,1-1.27-.39c.55,2.89.47,5.7-1.43,7.73a13.67,13.67,0,0,1-1.72-.54,6.24,6.24,0,0,1-7.36,5.35c.31,1.27-.51,3.26-.2,4.53-.79,0-1.69.18-2.47.15.28,1.26-.5,3.09-.2,4.35-2.69-.39-4.31.68-4.69,3.52-3.89-.57-4.45,3-7.11,4.07a17.5,17.5,0,0,1-.84,7.27c-3.47-1.65-6.43-2.82-8.07.17-2.73-1.46-5.89-1.09-9.86-.83-16.55,1.09-16.62-9.14-21.17-21.56-.16.47-.59,1.49-.81,2-.39-1.74-2-3.18-2.5-4.41a28.09,28.09,0,0,0-3,7.24c-2.7-1.71-2.15-1.23-4.7-.19a24.62,24.62,0,0,0-1.84-2.2c-.43,1.27-2.21,2.94-2.65,4.21-1.12-1.56-3.2-2.33-4.55-3-.21,1.57-1.44,2.92-1.59,4.52-1.08-.78-2.82-1.43-3.79-3,1.56,5.24,2,14.38-3.42,17.78l-4.37,1.87c-.71-2-1.89-3.34-3.54-2.73a15.77,15.77,0,0,0-.24-9.1,14.64,14.64,0,0,0-1.73,1.06c-.94-4.75-20.4-38.56-22.12-35.77L216,432.79c-2.37,1.55,1.51,7,2.61,9.56,3,2.61,2,7.61,4.59,11.87,3.68,5.95,7.35,8.13,9.5,15.21,1.62,5.36,4.43,9.67,6.51,14.46s3,10.2,5,15.36c.28,1.49.75,3,1,4.34.65-.19.67-.48,1.22-.56-.45,2.91-.13,5.86,2.7,6.53.09,3.94.86,6.78.2,10.61,6.74-3.79,13.3,9.2,17.88-.13,1.09,1.67,3.43,2.94,4.7,4.37,2.87-4.71,7.08,0,8.47-4.84.66,1.33,2,1.74,2.7,2.6.51-.86,1.25-1.65,1.67-2.55,2.82,2.24,17.54-2.25,18-4.67.47,0,1.51,1,1.85,1.2a9.63,9.63,0,0,1,1.85-2.55,18.85,18.85,0,0,0,1.52,2c1-2.45,4.24-5.64,7.66-7.8,11.63,2.1,32.31-18.64,39.59-23.61,22-15,44.12-29.95,65.52-46,17.73-13.3,23.86-21.12,23.86-42.08,0-9.29,1.12-16.52,2-25.12C447.39,362.8,449.72,348.71,446,342.28Z"/><g class="b"><path class="c" d="M699,1V699H1V1H699m1-1H0V700H700V0Z"/></g></svg>