<svg xmlns="http://www.w3.org/2000/svg" viewBox="0 0 700 700"><defs><style>.a{fill:#824c43;}.b{opacity:0;}.c{fill:red;}</style></defs><path class="a" d="M454,356.52c-1.23-12.42-1.74-25.15-4.76-37.76-3.46-14.46-6.44-29.09-9.35-43.92-1.56-8-3.46-15.65-4.2-23.85-.61-6.87,3-33.94-2.39-29.9-17.4,13-22.7,2.46-28.41,11.49-7.43,11.76-5.53,15.4,3.67,23-3.7,1.47-7.36-2-11.6-2l6,11c-2.23-1.4-2.84-2.53-5.89-1.79,4,5.72,8.52,11.82,12.59,17.69a63.26,63.26,0,0,1-11.53,2.25c.22,5.37,6,8.81,9.49,12.94-2.46-.49-5.27.46-7.62.07,1.87,3.2,4.8,6.61,6.88,9.66-6.06-.41-13.58,2.27-19.92,2.18,14.12,11.11,41.1,26.2,44.9,44.8-3.06-.25-13.92-8.17-16.9-8.8.66,1.39,7.74,12.24,8.65,13.9a24.38,24.38,0,0,0-3.49.24c-.16,4.08,2.13,7.86,2.71,11.75-1.18-.05-2.59.33-3.74.29.85,3.07,2.07,7.11,1.72,10.69-3.18-.26-5.76.31-8.79-1.54,1.66,2.67,2,5.73,2.84,8.67-1.36-1-3.66-1.24-4.74-1.86-.54,5.57.31,11.36.71,16.79-1.86-1.09-5-1.63-7-3.63.3,4.56,1,9.12,1,13.65-1.77-1.37-5-2.33-6.81-4.85.07,6,1.2,12,.81,18.05-1.84-1.93-5.18-3.75-7-5.88a5.82,5.82,0,0,1-.3,1.26,17.81,17.81,0,0,1-3.45-7.37c1-.36,1.67.15,2.58,0-4-6.54-10.21-11-14.58-16.92l2.72-1.48c-16.09-14.5-35.9-28.85-57.85-20.75-.74,1.52-2.41,4-2.88,5.31-4.51-.42-9-.55-13,.86.88.53,2.83,3.18,4.07,3.83-1.76.68-3.59,2.76-6.09,3.2.49.83,1.12,2.14,1.62,3.1-4.47.31-9.27,2-7.78,6.5-1.95-.41-4.81.75-6.8.35.19,1.41-.46,3.32-.25,4.7-1.95-.56-4.36.22-6.47-.75-.07,1.1-.47,2.55-.53,3.8-4.94-2.1-22.35,5.79-25,9.92-6.39-2.44-8.85,1.18-15.84,1.18v2c3.38-.75,10.36,1.89,14.6,2.87-.73-1.44-.77-3.37-1.5-4.74a44.27,44.27,0,0,0,13.75.72c.21-.93.13-1.76.3-2.7a24.2,24.2,0,0,0,10.78-1.37c-.18-.67-.76-1.87-.85-2.55,3-.47,5.8-2,8.83-2.47a.75.75,0,0,0-.51-.81c3.27,1.13,6.35.56,9.52-.15.06-1.15.28-2.51.26-3.62,3.64-1.36,7-2.77,10.7-4.4a2.67,2.67,0,0,0-.48-1.6c7.46,1.24,12.26-5.92,16-11.88,11.25,1.08,21.88,5.39,23.66,16.88,2,13,6.74,20.75,12.75,33.18.38.8.77,1.55,1.16,2.28v.36c-10.85,1.71-35.27,6.19-45-1,9.59,14.06,19.95,24.78,23.85,41.9-3.14-1.55-6.42-3.4-9.64-4.81-.5,4.53.45,9.22.66,13.67-1.62-2.67-4.66-4.91-6.69-6.71-.81,3.68-1.17,7.53-2.08,11-6.3-5.27-5.9-4.72-11.51-1.62-3.24,1.8-6.69,1.88-5.75,7.5-2.33-1.43-4.88-5.05-7.68-6.86.14,2.78-.62,5.86-.08,8.68-.23-1.87-1.78-4.09-2.3-6-10.77-1.79-16.78-10.77-32.58-22.71-2.25,9.37-1.3,22.49-4.93,30.88-3.21-5.71-5.62-12-8.53-17.93-.69,1.3-2.22,3.71-2.49,4.92-.1-.05-.85-2.37-1-2.63a31.52,31.52,0,0,1-.43,4.38c-4.8-19.68-9.15-19.43-13.8-32.68-2.2-6.3-6-16.43-12.08-21a10,10,0,0,0,1.36-2.76c.45,1.1,1.29,2.51,1.65,3.49.84-2.13,3.46-4.27,4.35-6.69.68-.07,1,.93,1.72,1.1.43-1.8,2.66-4.79,3-6.82a27.35,27.35,0,0,1,1.19,2.57c1.93-1.43,1.7-1.64,3-3.78.66-.23,2.18.19,2.69-.29a30.57,30.57,0,0,0,2-6.71c-4.28.92-7.29,5-10.62,6.73a20.43,20.43,0,0,1-1.42-2.8c-.66.91-3.78,2.61-4.56,3.77-.62-1-1.76-2.15-2.22-3a56.07,56.07,0,0,1-6.78,7c-.53-1.61-2-2.83-2.47-4.75a18.21,18.21,0,0,0-5.78,5.9l-3-2,3,9c.67.89,2.25,2.21,3,3.15,1.05-.14,2.23-1.37,2.91-2.14,20.94,34,18.11,51.47,18.11,68a15.15,15.15,0,0,1,6-12c.15,4.8-6.63,15.55-4.74,20,3.09-6.63,9.32-13.12,8.74-5,.88-.66,2,5.7,2.8,5.08,4.94,7.35,5.92,16.75,11.13,24.76,2.71-4.21,5-8.85,8.09-12.9,1.95,2.12,4.78,4.26,6.23,7,1.54-2.92,3.49-6.51,6.75-7.94.88,1.62,3.26,3,4,4.26,2.45-3.58,5.25-7.4,9-9.26,1,2.13,3.88,3.54,4.78,4.91.87-3.48,3.29-5,5.18-6.91,4.28,6.59,11.79,2.65,15.09,9.62.58-.53-.39-1.1.66-1.59,1.13,2.68,3.28,5.13,4.32,7.81-.15-7.3,1.49-14.73,3.18-21.81,3,2.76,7,5,10.54,7.08,1-15.1,4.78-13.69,17.19-14.22a39.37,39.37,0,0,1,1.07-12.7,92.22,92.22,0,0,1,11.79-3c-.49-2.51.24-6.52-.76-9.09,3.61-.15,10.24,1.5,13.13-1,3.43-3-.34-8,1.86-10.67,3.19-3.92,22.13-.56,16.86-10.27,4.89-.36,11.47,1.52,14.08-2.13a14,14,0,0,1-2.75-2.16c1-1.08,2-2.29,3.11-3.59a7.29,7.29,0,0,1,1.77-.48l-.79-.68c.88-1,1.78-2.11,2.71-3.18.89.09,1.78.15,2.68.19-.47-.55-.95-1.08-1.43-1.61,5.37-6.05,11.2-11.49,15.56-9.69,2.49-3.73,4-10,9-7.92a36.16,36.16,0,0,0,.36-4.75c4.65,0,14.18-15.61,16.59-22.15C458.69,386.92,455.35,370.56,454,356.52Z"/><g class="b"><path class="c" d="M699,1V699H1V1H699m1-1H0V700H700V0Z"/></g></svg>