<svg xmlns="http://www.w3.org/2000/svg" viewBox="0 0 700 700"><defs><style>.a{fill:#212228;}.b{opacity:0;}.c{fill:red;}</style></defs><path class="a" d="M144.63,278.22c-4.72,6-3.54,9.21,1.79,11.88,6-5.82,34.06,6.75,33.56,3.25C180.63,287.49,152.63,276.22,144.63,278.22Z"/><path class="a" d="M271.85,238c-24.66,8-31.94,10.25-51.94,28.25-2.79,3-10.45,13.46-6.7,17.36,2.61,3.26,35.37-28,70-40.69,12-2.67,27.5-9.84,48-7.34C318.58,229.55,282.93,234.71,271.85,238Z"/><g class="b"><path class="c" d="M699,1V699H1V1H699m1-1H0V700H700V0Z"/></g></svg>