<svg xmlns="http://www.w3.org/2000/svg" viewBox="0 0 700 700"><defs><style>.a{fill:#bc9f64;}.b{opacity:0;}.c{fill:red;}</style></defs><path class="a" d="M144.14,273.16c-4.71,6-2.07,14.27,3.26,16.94,2.5-6.5,33,7.62,32.51,4.12C168.58,275.11,152.14,271.16,144.14,273.16Z"/><path class="a" d="M273.16,233.08c-18.25,5.54-34.74,8.39-54.74,26.39-1.53,2.92-6.26,15.52-2.51,19.42,14.67-8.67,32.67-23.34,67.34-36,11.73-3.62,27.5-9.84,48-7.34C318.58,229.55,288.79,228.2,273.16,233.08Z"/><g class="b"><path class="c" d="M699,1V699H1V1H699m1-1H0V700H700V0Z"/></g></svg>