<svg xmlns="http://www.w3.org/2000/svg" viewBox="0 0 700 700"><defs><style>.a{fill:#5b5e72;}.b{opacity:0;}.c{fill:red;}</style></defs><path class="a" d="M144.14,281c-4.71,6-1.42,9.72,3.91,12.38,11.22,1.35,26.07-17.59,24.11-28.67C168.25,260.78,158.64,283.73,144.14,281Z"/><path class="a" d="M283,252.51c-36.69,4-58-.24-75-1.51-1.64,5.16.65,11.08,8.47,12.38,25.9,7.28,36.24,2.45,61.9-1.3,16.11-2,42.21-13.27,50.91-24.26C312,249.14,294.94,249.58,283,252.51Z"/><g class="b"><path class="c" d="M699,1V699H1V1H699m1-1H0V700H700V0Z"/></g></svg>