<svg xmlns="http://www.w3.org/2000/svg" viewBox="0 0 700 700"><defs><style>.a{fill:#754a27;}.b{opacity:0;}.c{fill:red;}</style></defs><path class="a" d="M144.63,278.22c-4.72,6,.69,11.82,6,14.48,4.05,3.31,26.71,14.34,33.55,4.89C177.26,291.18,152.63,276.22,144.63,278.22Z"/><path class="a" d="M265.13,241.61c-23.37,11.24-34.31,16.28-50,33.07-3.46,5.36-6,13.58-1.73,16.94,4.67,2.39,13.46-3.91,51.25-38,9.56-7.39,35.6-22,56.25-22.25C307.57,227.12,279.61,234.27,265.13,241.61Z"/><g class="b"><path class="c" d="M699,1V699H1V1H699m1-1H0V700H700V0Z"/></g></svg>