<svg xmlns="http://www.w3.org/2000/svg" viewBox="0 0 700 700"><defs><style>.a{fill:#563743;}.b{opacity:0;}.c{fill:red;}</style></defs><path class="a" d="M143.06,266.86c-3,4.34-3.38,12.53,1.95,15.2,5.87-15.64,27.43-10,23.46-15.64C158.69,256.65,147.62,261.64,143.06,266.86Z"/><path class="a" d="M264,215.82c-25,6.78-31.92,9.34-50.6,24.54-1.68,2.84-6.38,9.82-2.83,13.9,15.08-7.94,32.58-20.2,67.12-29.32,12.11-2.08,31.77-2.2,52.12,1.3C317.49,219.63,279.89,212.56,264,215.82Z"/><g class="b"><path class="c" d="M699,1V699H1V1H699m1-1H0V700H700V0Z"/></g></svg>