<svg xmlns="http://www.w3.org/2000/svg" viewBox="0 0 700 700"><defs><style>.a{fill:#484949;}.b{opacity:0;}.c{fill:red;}</style></defs><path class="a" d="M144.63,278.22c-4.72,6-2,9.17,3.28,11.83,5.35-.6,43.21,13.52,39.24,7.87C181.65,290.42,152.63,276.22,144.63,278.22Z"/><path class="a" d="M267.94,219.07c-25,6.79-29.53,10.61-50.38,27.61-1.68,2.84-8.17,8.38-4.62,12.46,15.08-7.94,31.49-21.29,66.73-32.25,12.12-2.07,31.77-2.19,52.13,1.31C319.44,221.58,283.52,214.5,267.94,219.07Z"/><g class="b"><path class="c" d="M699,1V699H1V1H699m1-1H0V700H700V0Z"/></g></svg>