<svg xmlns="http://www.w3.org/2000/svg" viewBox="0 0 700 700"><defs><style>.a{fill:#694239;}.b{opacity:0;}.c{fill:red;}</style></defs><path class="a" d="M288.6,228.14c-16,4.56-51.81,13.65-70.48,31.64a38.31,38.31,0,0,0-.52-7.44,74.86,74.86,0,0,0-8,20.49c-1.25-3.6-1-6.59-.15-12-3.42,5.77-3.45,13.29.37,23.08a8.27,8.27,0,0,0,3.45-3.68c19.41-2.66,29-14.9,68.29-34.87,11.89-4.81,16.37-7.22,54.16-7.93C320,230.76,298.81,228,288.6,228.14Z"/><path class="a" d="M167.41,278.05c4,5.27,6.72,10.16,9.49,13.94-11.81-10.06-27.57-19-35.49-14.44.65,6.48,2.17,14.34,7.5,17,4.78-.08,20.5,4.84,34.5,3.5l-.92-.92C184.59,286.46,172.84,283,167.41,278.05Z"/><g class="b"><path class="c" d="M699,1V699H1V1H699m1-1H0V700H700V0Z"/></g></svg>