<svg xmlns="http://www.w3.org/2000/svg" viewBox="0 0 700 700"><defs><style>.a{fill:#554b63;}.b{opacity:0;}.c{fill:red;}</style></defs><path class="a" d="M330.43,205.69c-4,4.55-18.88,11.53-40.89,21.3-13.16,6.66-12.86,1.9-30.06,12-11.51,4.22-22.24,12.55-27.3,27.28,0,0,.79-10.56,2.75-15.57-10.28,9.1-12.15,17-15.37,29.27-.85-3.55-2.79-7.38-.1-16.54-10.15,13.48-7.83,24.58-3.32,34.53,2.07.78,8.15,4.46,14.5,3,1.49-3.59,5.22-17.73,9.72-23.79-2.15,3.69-3.15,6-2.27,12,.83-3.49,7-1.87,17.24-16.7,6-4.93,9.58-16.07,15.3-23,7.14-6.45,21.3-10.9,33.45-15.39-7.55-.91,0,0-7.45-.25,7.42-4.47,16.09-5.07,31.75-13.45-.34-2.65-8.89,4-16.24,4.42C316.38,222.22,323.69,214,330.43,205.69Z"/><path class="a" d="M165.46,280.09c-6.42-7.57-10.88-11.62-14.34-15.15,1,4,1.93,7,4.9,10.05-8.47-3.59-14.11-1.94-20.11-5.94-2.54,4.48,7,17.81,12.94,22.37-3.34.13-3.51.33-6.49-1.57-4-2.54-5-3.05-5-3.05,6.92,8.07,14.86,14.65,25.89,11.76-3.54,3.47-5.53,2.45-9,3.41,16.95,5.18,32.62,11.56,35.17,6.08-6.83-16.07-21-24.93-23.84-38.46C164.5,276.08,164,276.57,165.46,280.09Z"/><path class="a" d="M213.3,295.39c-2.15-2.15-4.3-13.2-4.3-16C206.24,285.56,208.69,291.09,213.3,295.39Z"/><g class="b"><path class="c" d="M699,1V699H1V1H699m1-1H0V700H700V0Z"/></g></svg>