<svg xmlns="http://www.w3.org/2000/svg" viewBox="0 0 700 700"><defs><style>.a{fill:#fad7be;}.b{fill:#e2b08f;}.c{opacity:0;}.d{fill:red;}</style></defs><path class="a" d="M626.43,532.56c-24-22.86-50.22-49.31-72.64-75.72-23.5-81-39.55-192.08-39.55-221.48-.15-.6-.33-1.19-.52-1.77-2.86-61.2-13-125.8-46.47-158.37-52-59-282.62-42.67-326.62,93.33-9.33,32.67,3,70,6,90,0,14-2.38,24.34-.38,31.34,20,20,18.66,27.33,21.66,40.33-.16,6,1.84,17.33,3.84,25.33,3.39,7.07,7.23,14.38,11.3,21.77-4.38,18.4-4.57,22.14-4,24.9,4.66,10.67,12,12,18,13.33a43.65,43.65,0,0,1,9.43,1.87c13.21,21.73,25.34,41.15,30.73,53.13,9,18,14.5,40.67,18.5,45.67,16,7,40.5.33,51.5-4.67q9.6-5.71,18.75-11.37c9.56,25,18.54,46.3,24.07,60.81-14.72,18.23-31.69,35.3-49.74,51.88-108.6,42.19-130,64.68-153.84,87.13H700V562A662.44,662.44,0,0,0,626.43,532.56Z"/><path class="b" d="M264.75,297.05c-1.51-6-7.28-23-16.49-32.54,8.5-2.71,19.39-7,27.28-7.64-4.45-.75-25,.68-35.3,2.78-6,.7-18.71,5.09-21,12.4-2,6.5-5.5,13,1.5,27C232.25,306.55,262.08,306.89,264.75,297.05Z"/><path class="b" d="M181.57,398c2.67-14.67,10.18-50.42,14.68-63.42a72.58,72.58,0,0,0,1.47-15.89,19.46,19.46,0,0,0-1-10.61,29.26,29.26,0,0,0-20.23-16.78,61.69,61.69,0,0,0-19.35-4.76c24.11,20.53,4.58,38,15.58,49.54,3,.89,13.52-1.74,20-8.43-.44,8.3-2.17,17.71-4.36,27.93-9.56,37.78-10.13,43.06-9.33,46.67,4.66,10.67,12,12,18,13.33,9.74.65,18.68,6.11,25.92,5.77-6.57-2.4-15.43-7.35-22.1-7.35C189.75,410.22,179.25,404.89,181.57,398Z"/><path class="b" d="M217.57,408c-.66,3.33,4,4.67,12,0,3.34-2.67,1.34-1.33,11.34-3.33C237.57,404.64,229.25,399.55,217.57,408Z"/><path class="b" d="M230.25,309.55c11,9.34,17.11,12.84,21.66,13.34,10,.5,22.56-4.34,24.84-7.84-10,1-10.94,2-19.15,2C249.85,317.05,239.25,313.55,230.25,309.55Z"/><path class="b" d="M488.75,204.55c-15.63,0-39.27,5.92-47.44,46.66,12.13-33,34.89-41,45.92-42.66,25.35,17,8.93,83.21-2.65,102.34-6.84,11.62-14.33,18.19-21.83,22.09-1.22.64-2.44,1.2-3.66,1.7l0,0c-.6.24-1.19.47-1.79.69l-.12,0c-1.18.43-2.36.81-3.53,1.14l-.15.05c-.55.15-1.1.3-1.64.43l-.3.08c-1.16.28-2.32.54-3.46.76a25.76,25.76,0,0,0-1.8,5.32c-3,49,2,63.33-25,90.33-16.59,14.84-51.45,39.58-94.63,66.24,4.66,10.85,8.48,20.1,10.63,26.76,6,6,25,9,40,8,23-20,80-110,83-129a530.51,530.51,0,0,0,2.73-67c8.37-1.86,16.54-8.83,24.27-22C498.83,297.43,514.1,221.55,488.75,204.55Z"/><path class="b" d="M448.58,316.89c8.67,4,3.33-14.67,13.33-18.67,7.34-1.33,20.67-12,12-25.33-7.33-6-16,3.33-18-1.34-1.07-1.22-.76-4.24.43-8.18,5.42-5.35,11.74-13.69,21.57-8.48,3.38-2.81-3.67-9.41-13.15-10.22,5.52-9.88,12.11-18.86,15.82-19.78,20,10,2.67,20,9.33,36.66-.66,11.34-1.33,22-11.33,42.67,6-6.67,10-13.33,13.33-28,1.34-6.67,10-42-6-60-12,2.67-42,28.67-37.33,56.67,6.67,9.33,6.67,11.33,2,23.33C443.25,302.89,447.91,310.89,448.58,316.89Z"/><g class="c"><path class="d" d="M699,1V699H1V1H699m1-1H0V700H700V0Z"/></g></svg>