<svg xmlns="http://www.w3.org/2000/svg" viewBox="0 0 700 700"><defs><style>.a{fill:#2a2c33;}.b{fill:#111;}.c{opacity:0;}.d{fill:red;}</style></defs><path class="a" d="M512.71,110.41C504,87,490.93,69.66,472.17,55.23a83.68,83.68,0,0,0-11.92-8.68c-54-37-108-41-173-18-18,2-56,1-71,24-47,0-113,35-110,92C86.87,164.9,49.66,207.77,86.46,291.36c-7.21-18.9-8.4-47.08,15.79-67.81-5,28,6,61,35,95-10.93-23.68-24.34-102.13,16.44-146.15,8.92-.06,19.64.2,23.56,2.15,18-33,47-31.5,65-42-1,1,1,10,1,10s47.9-12.6,72-24c-12,10-8.41,13.11-8.41,13.11,4.41-2.11,24.41-4.11,39.41-9.11-5,6-16,11-16,11,19,7,33,7,37,4-1,5-13,6-18,8,7,13,12,38,12,41,12,10,20,18,35,26-2,3-12,0-12,0,8,5,2,5,18,14a35.88,35.88,0,0,1-11,0c15,12,20,8,27,32,10.94-17.51,22.95-30.75,36-38.19,10.52-13.26,24.23-15.81,34.48-15.81,22.91,15.37,12.64,78.81,1.91,105,6.89,7,8.32,18.66,7.59,26,6-6,9-7,10-13,2,9,2,21,2,26,5-8,7-10,8-17,1,13,7,17,7,22,3-32-1-39,0-66,2-41.82,2.45-76.31.64-105.15a266.06,266.06,0,0,1,16.36,97.15C554.47,232,539.39,162.47,512.71,110.41Z"/><path class="b" d="M349.25,145.55c14.8,4.46,31.42-4.34,43.15-11.18-5.87,2.93-38.12,1-48.87-5.87,3.91-3.91,39.09-7.81,49.84-5.86-7.94-2-22.6-5.76-38.52-6.47,38.28-5.53,92.38-4.59,125.4,14.38-10-9.1-79.75-35.62-142-13.85q-3.27.39-6.48,1c4.88-9.77,23.46-27.36,51.8-28.34-34.21-11.73-84.06,3.91-102.26,37.75.37-2.33-5.25-28.95-12.09-50.46,1.29,5.16-.4,19.25-4.51,33,2-27.8-23.77-55.7-48.49-57.16,35.19,12.42,41.81,40.08,39.58,62.27C251.25,98.35,236.66,75.7,219.4,62c5.52,5.52,10.65,19.11,12.78,35.48-15.9-19.84-48.1-29.85-78-26,28.44-58.77,134.94-26.95,127.12,55.69,22.33-70-85.94-145.45-127.16-55.69-25.7,3.28-49.64,16.79-59.93,43.08C128.53,73.24,203.74,65.93,233,106.18a117.8,117.8,0,0,1-.74,22.37c-7-40-84-47-107-28,37.8-11.27,67.24-1.87,86.29,10.11-14.38-7.27-35-11.47-58.6-2.68,12.7,1,31.27,2,46.91,22.48-15.64-9.77-50.82-16.62-69.39,3.91,13.28-5.31,45.8-9.82,57.62,2.45C144.77,123.26,44.7,160.65,95.35,280.15c-26-77.37,19.61-147,84.18-139.55-57.12.25-88.83,51-91.27,100.22a58.64,58.64,0,0,1,13.11-16.49c-7.41,32.26-.82,70.34,28.88,104.22-20.07-26.32-28.23-52.1-27.62-75.67,3.89,20.65,15.22,42.93,34.62,65.67-10.93-23.68-24.34-102.13,16.44-146.15,8.92-.06,19.64.2,23.56,2.15,18-33,47-31.5,65-42-1,1,1,10,1,10s47.9-12.6,72-24c-12,10-8.41,13.11-8.41,13.11,4.41-2.11,24.41-4.11,39.41-9.11-5,6-16,11-16,11,19,7,33,7,37,4C366.25,142.55,354.25,143.55,349.25,145.55Z"/><path class="b" d="M399.24,201.81c6.84-4.89,24.43-18.57,46.91-17.6-18.57-6.84-47.89-5.86-68.42,2,2.94-3.91,14.67-12.71,31.28-16.62-6.85,0-34.05,2.71-47.83,16.13,0,.37.07.67.07.87,12,10,20,18,35,26-2,3-12,0-12,0,6.42,4,3.83,4.81,10.83,9.62,12.91,1.37,28.13.5,39.34-.82-5.86-2.93-6.84-4.88-16.61-9.77,9.77,0,12.7-5.86,34.2-3.91C446.15,205.72,418.78,198.88,399.24,201.81Z"/><path class="b" d="M493.06,167.6c-24.43-28.34-71.34-30.3-96.76-19.55C424.65,139.26,481.34,157.83,493.06,167.6Z"/><path class="b" d="M461.79,117.75c-25.41-24.43-48.87-30.3-64.51-24.43C419.76,93.32,454,111.89,461.79,117.75Z"/><path class="b" d="M485.25,153.92c-24.44-28.35-53.76-30.3-62.56-25.42C446.15,130.46,479.38,147.07,485.25,153.92Z"/><path class="b" d="M498.1,142.23c.79,1.76,1.52,3.53,2.15,5.32A30.42,30.42,0,0,0,498.1,142.23Z"/><path class="b" d="M498.1,142.23C469,77.06,337.19,32.5,298.25,104.55,369.67,31.22,479.19,104.82,498.1,142.23Z"/><path class="b" d="M493.25,102.55c-3-66-141-60-156-41C415.25,28.55,476.25,74.55,493.25,102.55Z"/><path class="b" d="M413.09,200.89c77.69-13.74,99.33,13.33,105.33,34.66C505.12,183.89,428.42,182.22,413.09,200.89Z"/><path class="b" d="M435.09,164.89c65.33,9.33,88,39.33,90,70.66C524.42,178.22,455.09,157.55,435.09,164.89Z"/><path class="b" d="M431.49,155.87c-8.19-2.73-49.42-7.14-74.78,9.62,1.08,3.84,2,7.58,2.73,10.83C376.36,164.57,414.26,155.05,431.49,155.87Z"/><g class="c"><path class="d" d="M699,1V699H1V1H699m1-1H0V700H700V0Z"/></g></svg>