<svg xmlns="http://www.w3.org/2000/svg" viewBox="0 0 700 700"><defs><style>.a{fill:#353535;}.b{fill:#f4bc3d;}.c{fill:#e8ab31;}.d{opacity:0;}.e{fill:red;}</style></defs><path class="a" d="M539,311c-5.21-31.28,16.94-104.26,11.73-127.06,2.28-11.73-29.32-22.16-60.6,14-1,2.25-1.93,4.47-2.82,6.67l1.44,0c25.35,17,10.08,92.88-1.5,112-.47.8-.94,1.56-1.41,2.31,5.59,11.69,11.13,17.82,11.13,17.82,0-6.84,3.91-11.72,5.87-22.47,0,6.84,5.86,15.63,10.75,29.32-1-7.82,0-16.62,3.91-27.37-1,6.84,9.77,27.37,20.52,39.09-4.88-27.36-7.49-48.86-5.53-59.94C531.83,300.52,533.79,305.08,539,311Z"/><path class="a" d="M423.24,147.4c-2.61,4.34-30.84,37.79-35.62,45.18.43,3.91-.87,19.54-1.31,25.19a51.72,51.72,0,0,0,7.44-12.19c1.3,11.31-4.7,29-4.7,29a9,9,0,0,0,6.13-1.91c.19,4-.79,12.38-1.66,14.24,4.68-.76,5.71-3.92,6.58-5.79-.45,3.88-.87,13-1.89,16.18a28.63,28.63,0,0,0,7.38-7c-.45,3.88-4.55,16.52-4.55,16.52,1.51-.31,3.24-2,4.46-3.08,0,2.95-.44,8-1.63,11.12,4.13-1.65,4.87-2.38,5.27-3-1,3.16-2.79,9.84-3.91,11,3.12-1.44,4.36-2.27,4.92-2.86-1.64,4.23-2.25,8.1-3.25,9.62,3.67-.56,4.79-1.74,5.82-2.11-.41,2.09-1.21,7.57-1.77,8.16a19.93,19.93,0,0,0,4.18-2.14c0,3.11-.46,9.62-1.37,10.34,5.3-1.84,8.93-7.65,10.83-9.89a8.06,8.06,0,0,1-.29,3.9c3.15-3.07,4.23-12,5.89-16.68.35,2.7,2.17,2.17,3.91,5.21,0-8.68.43-17.37,1.73-21.72,2.61,3.05,1.74,2.18,4.78,4.35-1.3-3.91-2.6-20.85-3.36-25.48S438.87,172.59,423.24,147.4Z"/><path class="b" d="M156.85,24.9c2.93,12.71,2,9.78,23.46,26.39-33.24-7.82-95.79,33.23-93.83,73.3C96.25,106,100.16,106,115.8,99.18c-10.75,7.82-18.57,19.55-27.37,45s-15.64,34.21-47.89,38.12c10.75,16.62,24.44,9.77,43,2-14.67,27.37,0,69.4,37.14,97.74-9.78-21.5-13.69-45.93,2.93-68.41-4.89,22.48,5.86,59.62,39.09,65.48C148.05,262.4,149,247.74,151,222.33c0,11.73,20.53,49.85,48.87,60.6-19.54-26.39-4.88-76.24,6.84-86-4.88,8.8,2.94,36.16,25.42,52.78-5.87-42,25.41-57.67,43-87-8.8,31.28-20.52,38.12-16.62,74.28,4.89-24.43,53.76-43,66.47-67.44-2,13.69-2,30.3-18.57,49.85,38.11-15.64,57.66-37.14,73.3-62.55-4.89,11.73-17.59,30.3-2.93,63.53,5.71-17.59,15-30.62,24.45-41.78-5.63,24.49-1,49.89,5.85,66.21,1.95-7.82,9.77-41.05,14.66-41.05,1,29.32-2,54.73-8.8,70.37,17.85-8.92,47-40.5,63-68a50.74,50.74,0,0,1,12.86-1.57c8.57,5.75,12.49,18.23,13.49,33,12.14-8,18.53-20.69,24.06-30.82,0,0,2,8.8-2.26,25,8.5-9.24,17.89-20.09,21.8-39.64,2.93,5.87,11.73,14.66,7.82,36.17,11.73-15.64,9.78-36.17,3.91-56.69,3.91,4.89,11.73,9.77,15.64,29.32,7.82-19.55,8.8-44-8.8-74.28,5.87,3.91,15.64,9.77,22.48,23.46,2-13.69-1.95-29.32-23.45-43,6.84,1,19.54,0,26.38-11.73-9.77,2.94-50.82,3.91-61.57-34.2S462.77-7.35,411.94,6.33A71.71,71.71,0,0,0,403.66,0H279.77a314.51,314.51,0,0,0-52.55,24.9C209.63,32.72,186.17,40.54,156.85,24.9Z"/><path class="c" d="M250.68,69.86c-21.19,12.9-34.34,37.73-40.49,64.57-20.44,21.71-47.84,89.7-26,128-7.46-58.81,8.25-96.2,23.3-113.07-3.39,25.59-.78,51.36,7,69.09C204.74,195.94,210.6,109,250.68,69.86Z"/><path class="c" d="M250.68,186.17c25.41-28.34,50.82-53.76,43-100.67C289.77,128.5,269.25,157.83,250.68,186.17Z"/><path class="c" d="M151,222.33c-3.91-9.77-11.72-69.39,11.73-105.55C140.23,142.19,130.46,173.46,151,222.33Z"/><path class="c" d="M109,259.47c-21.51-46.91,3.91-108.49,30.3-119.24C114.82,139.26,78.66,197.9,109,259.47Z"/><path class="c" d="M388.49,146.1c27.36-25.41,2.93-79.17,17.59-106.54C388.49,57.16,404.12,118.73,388.49,146.1Z"/><path class="c" d="M426.08,56.59C456.76,103.78,451.72,157,438.24,186.1,465.75,134.81,455.75,86,426.08,56.59Z"/><path class="c" d="M408,169.55c31.28-18.57,32.26-33.23,35.19-54.73C433.44,141.21,422.69,156.85,408,169.55Z"/><path class="c" d="M450.06,237c42-42,45-87,40.07-118.26C492.09,166.62,462.77,220.38,450.06,237Z"/><path class="c" d="M264.36,109q.88-2.47,1.83-4.69A49.85,49.85,0,0,0,264.36,109Z"/><path class="c" d="M360.14,24.9c-32.23,64.46-73.65,31.47-93.95,79.37C284,64.49,337.52,95.6,360.14,24.9Z"/><path class="c" d="M300.52,25.88c-15.64,2.93-47.89,44-36.16,83.08C264.36,86.48,270.22,47.38,300.52,25.88Z"/><path class="c" d="M221.35,64c-9.77,12.7-36.16,45.93-85,40.07C152.94,118.73,205.72,105.05,221.35,64Z"/><path class="c" d="M521.41,84.52c2,53.76,37.14,36.17,45,72.33C567.35,113.84,528.25,137.3,521.41,84.52Z"/><path class="c" d="M319.09,209.63c43-23.46,46.92-63.53,47.89-82.1C362.1,159.78,336.68,195.94,319.09,209.63Z"/><path class="c" d="M325,127.53C335.71,94.3,375.78,96.25,374.8,55.2,370.89,89.41,336.68,85.5,325,127.53Z"/><path class="c" d="M451,21c14.66-2.93,46.91,17.6,52.78,33.23C499.91,17.08,460.81,17.08,451,21Z"/><path class="c" d="M514,146.56c7.59,14.17,8.1,49.41,4.53,60.13,18.57-16.61,20.52-40.07,21.5-51.8-2,12.71-8.8,30.3-13.68,36.17C527.15,167.05,519.74,155.08,514,146.56Z"/><path class="c" d="M514,146.56a17,17,0,0,0-2.32-3.4C512.36,144.25,513.13,145.37,514,146.56Z"/><g class="d"><path class="e" d="M699,1V699H1V1H699m1-1H0V700H700V0Z"/></g></svg>