<svg xmlns="http://www.w3.org/2000/svg" viewBox="0 0 700 700"><defs><style>.a{fill:#284166;}.b{fill:#1d324c;}.c{opacity:0;}.d{fill:red;}</style></defs><path class="a" d="M158.8,51.29c-77.58,62-131.89,173.26-96.89,304.26-8.19-61.91,18.43-130.46,35.34-162.61-19.13,81.83,10.22,171.26,34.66,215.61A651.32,651.32,0,0,1,108.83,315c25.3,92.45,87.05,163.84,117.08,201.56-45-78-50-120-67-178-13.23-93.54-8-65-13-108,29.69,72.15,45.68,86.57,136,142-47-36-81-69-85-89,50,58,106,83,117,88-71-62-117-137-120-176,31.6,55.9,113.73,78.33,172.49,98.12a968.74,968.74,0,0,1,30.51,108.88c-2-47-13-83-12-98,23,69,33,181,35,198,8.1-57.23,14.19-131.84,11.89-205.66,9.31,72.72,11.49,133.93,12.11,142.66,9.41-54.56,12.52-141,.71-203.51,21,4.31,40.74,6.54,57.85,6.73.62,28-8,61.88-15.22,73.78-1.3,2.2-2.61,4.22-3.92,6.08a75.2,75.2,0,0,0,3.26,8.47c-2.68,40.47,30.86,91.06,47.32,105.45-11-28-17-43-17-60,25,49,38,65,54,83-20-75-31-129-28-148,12,45,17,59,21,72,0-44,0-74,3-89,1,31,3,57,6,69,6-50,15-100-3-156,25.94,39.38,35.26,77.82,36,87-2.28-48-25-118.09-33-131,33,39,52,65,57,80-5-54-55-112-64-126,32,22,76,32,87,32-62-38-121-89-148-113A298.92,298.92,0,0,0,436.27,0H245.66a269,269,0,0,0-75.32,44.5C164.25,47.58,160,50.12,158.8,51.29Zm330,153.26c7.09,4.76,11,14.13,12.71,25.58A272,272,0,0,1,461,213.57C470.19,206.18,480.57,204.55,488.75,204.55ZM355.8,264.5q3.18,8.34,6.06,16.32c-44.29-28.79-66.41-44.07-82.95-69.27C303.82,230.46,331.71,248.73,355.8,264.5Z"/><path class="b" d="M481,205.08c-19.79-3.37-39.07-7.8-52.49-12.68,4.7,6.11,16.34,14.2,31.89,21.63A40.69,40.69,0,0,1,481,205.08Z"/><path class="b" d="M506.93,218.42c7.54.72,21.94-3.17,37-6.84-13.57-.05-32.78-1.86-52.42-4.82,5.12,4.89,8.19,12.64,9.75,21.86,18.52,4.58,38.46,6.81,57.33,4.46C548.92,232.49,527.29,225.7,506.93,218.42Z"/><path class="b" d="M502.31,238.59c1.65,28.71-7.49,65.46-15.06,78a80.79,80.79,0,0,1-5.21,7.84c3.91,17.15,11.15,36.92,24.71,51.39-2.77-18.93,1.5-53.23,6.33-75.23,1.49,18.54,4.66,50.43,17.12,72.3C521.55,337.28,542.21,276.19,502.31,238.59Z"/><path class="b" d="M147.91,96.55c-27,65,21,169,100,220C204.91,283.55,139.91,190.55,147.91,96.55Z"/><path class="b" d="M118.73,128.55a235.51,235.51,0,0,0-7.5,24.7C68.62,190.15,57,266.86,59.11,288.8c7.07-36.22,27.48-97,49-120.93C97.62,226.26,101.46,327,196.58,468.1,168.59,425.57,102.09,304.44,118.73,128.55Z"/><path class="b" d="M421.91,246.55c-38-16-205.33-58.56-243-169,5.74,54.12,94.86,133.11,184.65,159.79,10.85,13.42,43.83,33.26,73.05,42.68-10.59-4.59-39.45-25.39-59.86-39.13A195.88,195.88,0,0,0,421.91,246.55Z"/><path class="b" d="M252.91,115.55C293.48,167.6,394.25,235,485.25,235,463.25,232,328,193.76,252.91,115.55Z"/><path class="b" d="M327.81,276.1q-5.43-2.18-10.61-4.42A45.31,45.31,0,0,0,327.81,276.1Z"/><path class="b" d="M195.25,153.92c1.88,30.57,39.33,82,122,117.76C283.76,253.68,212.06,188.91,195.25,153.92Z"/><path class="b" d="M130.51,183.4c-10.31,57-2.32,89.75,18.56,152.82C136.78,299.8,129.41,213,130.51,183.4Z"/><path class="b" d="M439,280.85c-7.09-1.09-61.95-9.07-80.43-16.63,1.39,5.1,11.33,10.08,27.38,13.31,11.1,28.64,26.52,114.24,27.12,121.82C413.66,361,399.14,294.16,394.44,279c4.47.65,9.3,1.16,14.43,1.53,10.85,38.4,12.87,153.4,13.82,159.28,3.64-44.53.06-144.52,0-158.67q8.07.15,16.85-.2c-1-.29-1.93-.6-2.91-.91A13.34,13.34,0,0,0,439,280.85Z"/><path class="b" d="M529.9,162c-41.72-2.53-221-64.46-286-136.44C265.07,61.89,403.27,159.67,529.9,162Z"/><path class="b" d="M533.51,162.05c-1.2,0-2.41,0-3.61-.06A32.09,32.09,0,0,0,533.51,162.05Z"/><path class="b" d="M533.51,162.05c-3.31,1.23-6.67,2.35-10.06,3.4A43,43,0,0,0,533.51,162.05Z"/><path class="b" d="M369.08,151.78c33.77,24.29,98.88,30.79,154.37,13.67C486.57,173.71,402.37,160.61,369.08,151.78Z"/><path class="b" d="M517.5,239.92c16.94,20.2,19.55,51.48,18.89,63.86C542.91,267.94,531.18,245.14,517.5,239.92Z"/><path class="b" d="M455,30.77c26.39,10.75,74.28,44,87,55.71C518.48,53.25,463.74,30.77,455,30.77Z"/><path class="b" d="M488.18,63c1.95,4.89,29.32,38.12,56.69,38.12C541.93,98.21,500.88,73.77,488.18,63Z"/><path class="b" d="M534.44,143.49c-11.73-37.79-58-69.72-74.61-78.52C476.45,77.68,524.67,123,534.44,143.49Z"/><g class="c"><path class="d" d="M699,1V699H1V1H699m1-1H0V700H700V0Z"/></g></svg>