<svg xmlns="http://www.w3.org/2000/svg" viewBox="0 0 700 700"><defs><style>.a{fill:#282130;}.b{fill:#3e3449;}.c{opacity:0;}.d{fill:red;}</style></defs><path class="a" d="M179.33,515.54c8.79-32.25,0-80.14-2.93-85C194,452,200.83,494,199.85,517.5c10.75-23.46,11.73-30.3,14.66-42,1,17.59,2,41,1,45.94,8.89-11,16.85-28.78,23.35-47.55-.52-1.11-1.05-2.22-1.59-3.31-5.39-12-17.52-31.4-30.73-53.13a43.65,43.65,0,0,0-9.43-1.87c-6-1.33-13.34-2.66-18-13.33-.61-2.76-.42-6.5,4-24.9-4.07-7.39-7.91-14.7-11.3-21.77-2-8-4-19.33-3.84-25.33-3-13-1.66-20.33-21.66-40.33-2-7,.38-17.34.38-31.34-3-20-15.33-57.33-6-90a142.83,142.83,0,0,1,20-39.47c-36.68-10.26-70.85,45-34.08,141.14C142.19,338.64,149,392.4,164.67,432.47S179.33,509.68,179.33,515.54Z"/><path class="b" d="M642.91,313.55c-14.59-17.4-54.13-70.78-81.18-133.83,21.7,33.78,53.63,66.8,89.9,99.77C570.43,195.2,571.15,157.78,536,110.7c-21.58-38.63-50.41-58.49-66.67-71.46C420.23-3.68,295,8.79,230.48,48.41a239,239,0,0,0-43.57,28.14c-14,11-64.85,12.57-96.85,39.57-16.94,37.8,4.85,66.43,1.85,112.43-4,50-18,116-4,165-.49-33.68,4-49.56,13.37-133.94-.66,16.16,1.87,34.63,2.63,85.94-3,36-6,80,6,145,2-51,0-76,11-128,5,31-2,59,17,151-1-22,1-53,4-98,3-14,2-49,10-99,5-33,6-94,2-139a13.73,13.73,0,0,0,.13-5.15,155.91,155.91,0,0,1,15.72.53c1.57.48,3.27,1,5.15,1.62a4.39,4.39,0,0,1,0-.79,11.46,11.46,0,0,1,2.31.79c13.94-25.56,34.48-30.42,51.4-36.2C268.32,233.29,315,293.83,334.73,316.16A248.24,248.24,0,0,0,358,336.31c2.32,9.46,4.17,19.12,5.92,30.24,13,54-11,64,22,119-15-41-8-81-8-99a147.16,147.16,0,0,0-.32-36.38q4,2.61,7.93,5c1.13,17.71-.62,30.56,9.39,48.36,11,29,15,86,17,111,7-32,8-86,3-117,22,36,14,73,32,93-9-42,10-80-10-135,18,25,21,114,30,125,3.37-17.66,7.62-57.07,10-99.27,12.64,22.74,28,28.94,46,49.27-17-62-12-59-12.66-82,14.33,22,12.66,57,29.66,78-7-27,0-40,1-68,9,12,11,42,39,62-8-12-12-57-18-88,13,40,33.13,35.09,46,89,.16-9.61-1-22-10-65-6.34-31.12-7.28-41.4-21.43-67.15,5.86,6.93,14.61,16.41,27.43,39.15,6,13,3,47,18,61-11-19-4-24-5-49-1-23,2-7-36-81C589.91,275.55,613.93,297.26,642.91,313.55Zm-301-4c-35.36-40.67-65.8-103.22-86.23-150,19.28,18.66,44.55,49,71.23,94,14.21,32,22.46,52.36,28.07,71.57A97.93,97.93,0,0,1,341.91,309.55Zm34.75,34.1c-3.23-20-8.6-35.23-6.75-45.1,10.54,22.24,13.92,38.23,15.19,51.37C382.15,347.79,379.34,345.71,376.66,343.65Z"/><path class="a" d="M265.91,124.55c57.09,93.87,104,134,126,166,33,44,47.4,97,48.38,127.26,3.91-53.76-35.91-119.83-43.15-128C365.91,246.55,288.79,155.87,265.91,124.55Z"/><path class="a" d="M322.91,171.55c64.6,69.35,141.81,166.11,146.7,232.57C476.45,334.73,379.91,227.55,322.91,171.55Z"/><path class="a" d="M326.91,106c23.46,32.26,73.3,81.13,85,85-36.16-28.35-67.44-71.35-83.07-89.92s-69.4-53.76-99.7-46.92c-26.39,6.85-57.66,72.33-51.8,92.85,14.66-51.8,25.41-71.34,53.76-85C271.2,55.2,314.21,90.39,326.91,106Z"/><path class="a" d="M168.58,149c-2.94-4.89-55.71-51.8-71.35-36.16-5.87,6.84-9.78,28.34-2.93,49.84-3.91-14.66,0-34.21,7.82-43C110.91,116.78,151,129.48,168.58,149Z"/><path class="a" d="M115.8,324c-3.91,22.48-11.73,59.62-9.78,74.28,4.89-41.05,16.62-65.48,17.6-77.21,0-39.1-7.82-121.2-20.53-139.77C114.82,209.63,119.71,301.5,115.8,324Z"/><path class="a" d="M400.21,198.88c39.1,25.41,77.22,65.48,87,97.73s5.86,77.22,22.48,109.47c-15.64-30.3-4.89-73.3-18.57-116.31C479.38,249.7,416.83,206.69,400.21,198.88Z"/><path class="a" d="M454,123.62C441.46,102,379.69,26.86,330.82,34.68c41.05,2.93,105.56,69.39,120.22,89.91,31.27,48.87,90.89,88,101.64,107.52s8.8,67.43,20.53,83.07c-10.75-31.27-2.28-49.3-15.64-82.1C546.82,206.69,475.47,160.76,454,123.62Z"/><path class="a" d="M569.58,313.69a37.92,37.92,0,0,0,3.63,1.49C572,314.7,570.76,314.2,569.58,313.69Z"/><path class="a" d="M466.68,208.65c55.3,37.18,55.73,84.59,102.9,105C535.75,297.87,516.71,233.2,466.68,208.65Z"/><path class="a" d="M115.8,145.12c-6.41,8.24,19.76,111.64,19.89,144a489.27,489.27,0,0,0-.34-60.91c9.77,28.34-2.94,118.26,0,144.65,7.81-52.78,19.54-168.11,7.81-192.54-3.9-20.53,3.91-13.69,9.78-9.78-2.93-9.77-3.91-11.73-8.8-15.64,11.73,0,23.46,5.87,29.32,13.69C151,138.28,127.53,140.23,115.8,145.12Z"/><path class="a" d="M135.69,289.11c-.1,1.83-.22,3.68-.34,5.55A35,35,0,0,0,135.69,289.11Z"/><path class="a" d="M180,163.91c3.08-16.07,25.48-48.58,23.46-40-1.31,5.54-2.61,3.91-3.91,23.46,2.93-6.84,14.77-15.65,25.19-9.56-5.21-7.59-7.49-43.54-16.29-51.36C198.66,94.3,180.81,134,180,163.91Z"/><path class="a" d="M347.44,251.65l1.23,1.22Z"/><path class="a" d="M348.67,252.87c22.61,23.09,59.56,98.95,70.11,124.86,10.76,26.39,8.8,28.35,19.55,73.31-1-9.78-2.93-37.14-5.86-55.71C429.57,377,384.63,288.87,348.67,252.87Z"/><path class="a" d="M399.24,397.28c7.82,14.66,11.73,58.64,12.7,70.37,0-51.8-6.84-100.67-24.43-131C388.49,363.07,391.42,382.62,399.24,397.28Z"/><path class="a" d="M428.56,245.79c45,37.14,52.78,70.37,54.73,110.44-3.91-10.75-23.46-48.87-41.05-61.57,13.68,12.7,43,83.07,58.64,102.62-6.84-12.7-13.68-66.46-16.3-86.39S458.86,265.34,428.56,245.79Z"/><path class="a" d="M410,231.13c-20.53-16.62-57.67-63.53-84.06-105.56C330.82,145.12,364.05,201.81,410,231.13Z"/><path class="a" d="M316.16,213.54c-17.59-23.46-48.87-70.38-64.51-99.7C256.54,132.41,282,181.28,316.16,213.54Z"/><path class="a" d="M489.91,261.55c15.86,19.42,26.61,66.34,26.61,77.09,11.73,17.59,7.82,42,13.68,58.64,2-31.27,8.8-45,2.94-70.37S505.33,272.43,489.91,261.55Z"/><path class="a" d="M565.39,399.24c-12.71-56.69-5.86-52.78-21.5-79.17C548.77,343.53,549.75,376.76,565.39,399.24Z"/><path class="a" d="M522.39,250.68c3.91,8.79,21.5,33.23,40.07,50.82-10.75-44-12.71-62.55-36.16-82.1,20.52,25.41,21.5,38.12,21.5,58.64C540,271.2,533.14,262.4,522.39,250.68Z"/><path class="a" d="M545.84,166.62c-4.88-19.55-24.43-62.55-52.78-87C518.48,106,533.14,155.87,540,173.46s24.43,58.65,45.94,76.24C551.71,206.69,550.73,186.17,545.84,166.62Z"/><g class="c"><path class="d" d="M699,1V699H1V1H699m1-1H0V700H700V0Z"/></g></svg>