<svg xmlns="http://www.w3.org/2000/svg" viewBox="0 0 700 700"><defs><style>.a{fill:#4c463b;}.b{fill:#d4b877;}.c{fill:#3f3a31;}.d{fill:#c1a46b;}.e{opacity:0;}.f{fill:red;}</style></defs><path class="a" d="M265.79,19.77c-51.27-5-93.33,23.11-120.43,59.21C105,116.27,84.09,164.09,82.24,211.26c-2.6,66.46,57.34,104.25,70.37,114.67-9.06-22.66-17.73-51.56-19.4-85.86,15.72,22.07,41.12,39.63,79.35,53.28-11.53-11.81-39.3-46.83-49.72-85.92C148.5,111,212.36,64.08,265.79,19.77Z"/><path class="b" d="M150,146.1c-9,60.68,15.63,96.43,86,152.47-37-42.26-31.13-98.21-10.39-139.68-4.8,30.34-1.73,66.28,13,109.7-8.61-28.29,10.66-74,32.58-104.25-10.92,18.08-18.38,61.21-19.55,83.4,6.84-20.52,16-53.5,41.7-70.37a175.16,175.16,0,0,0,22.18-17.31c-15,29.53-29.4,53.21-35.21,59,18.95-9.2,42.83-25.82,64.76-46.22-18.11,25.33-31.05,59.78,1.7,101-6.51-36.92,2.37-53,31.89-79.24-3.24,21.12-.15,41.83,12.42,70.11,5.07-26.18,7.41-36.49,14.1-48a32.42,32.42,0,0,1,4.84,8.52c.2,1.42.41,2.84.61,4.25,5.21,36.49-3.91,71.67-9.12,83.4,24-18.18,51.6-58.91,67.28-104.22a46.58,46.58,0,0,1,19.95-4.13c22.91,15.37,12.64,78.81,1.91,105,6.89,7,8.32,18.66,7.59,26,6-6,9-7,10-13,2,9,2,21,2,26,5-8,7-10,8-17,1,13,7,17,7,22,.3-3.22.53-6.18.7-8.95,7.89,13.19,16.32,27.62,24.13,49.1,6.51-11.73,2.6-41.7,0-49.52,11.73,20.85,10.42,11.73,23.46,14.33-9.13-6.51-23.46-14.33-27.37-39.09,0-14.34,13-59.95,16.94-76.89,1.3,7.82,5.21,13,5.21,26.06,7.82-28.67,5.22-65.15,2.61-93.82,3.91,6.51,7.82,13,11.73,32.58C594.39,99.18,486.22.14,422.37,17.08c-5.83-7.86-16-13.44-28.79-17.08H293.64c-21.05,4.2-39.94,10.59-52.41,18.39C199.53,44.45,160.43,75.73,150,146.1Z"/><path class="c" d="M118.73,127.85c-8.74,14.57-11.62,32.59-9.34,51.35-15.7,48.61,1.22,105.73,34.1,128.49-26.36-30-32.88-64.33-25.65-97a138.17,138.17,0,0,0,70,72.26C148.7,255.56,101.79,177.37,118.73,127.85Z"/><path class="c" d="M204.74,39.24C143.49,78.33,107,120,130.46,208.65,114.17,119.38,163,70.51,204.74,39.24Z"/><path class="d" d="M487.94,204.56h.81c5.42,3.64,9,10,11.12,17.86,11.11-45,7.2-76.31-4.52-105C499.09,142.38,499.25,170.86,487.94,204.56Z"/><path class="d" d="M299.87,164.34c48.22-24.76,87.31-99,73-130.32C370.24,92.67,316.81,150,299.87,164.34Z"/><path class="d" d="M349.39,17.08C312.9,10.57,239.92,82.24,232.11,147.4,242.53,114.82,281.63,45.75,349.39,17.08Z"/><path class="d" d="M414.55,297.26C468,234.71,478.4,113.52,451,84.85,462.77,137,441.92,259.47,414.55,297.26Z"/><path class="d" d="M438,122.64c14.33-26.06,15.63-66.46-5.22-92.52,16.94,41.7,11.73,63.85-3.91,88.61S359.82,189.1,352,220.38C372.85,178.68,423.67,148.7,438,122.64Z"/><path class="d" d="M271.2,52.27C219.07,80.94,163,150,200.83,234.71,200.83,150,208.65,105.7,271.2,52.27Z"/><path class="d" d="M529.23,224.29c-14.34,33.88-28.67,61.25-9.12,97.73C514.89,296,513.59,271.2,529.23,224.29Z"/><path class="d" d="M525.25,287.55c-6.59,21.57,1.37,43.6,24.83,56.63C531.83,328.54,529.23,305.08,525.25,287.55Z"/><path class="d" d="M271.2,160.76c15.64-36.17,58.64-77.21,75.58-118.92C322,87.45,277.72,112.54,271.2,160.76Z"/><path class="d" d="M228.2,56.18c-43,22.15-86,88.61-50.83,161.59C156.52,161.73,189.1,86.15,228.2,56.18Z"/><path class="d" d="M236,186.5C250.35,122.64,266.64,90.71,298.57,62,271.2,79,233.41,129.16,236,186.5Z"/><path class="d" d="M419.76,121.34c30-45.61,1.3-84.71-9.12-91.22,30,34.53,14.33,63.85,0,83.4s-54.73,48.21-61.25,89.92C367.64,157.83,402.82,140.88,419.76,121.34Z"/><path class="d" d="M391.09,36.63C395,79.64,354.6,163,297.26,204.74,346.78,182.59,421.06,66.6,391.09,36.63Z"/><path class="d" d="M414.55,282.93c22.15-61.25-5.21-67.77,22.15-151.17C402.82,189.1,423.46,237.7,414.55,282.93Z"/><path class="d" d="M526.62,178.68c19.55-57.34-11.73-105.56-26.06-113.38C520.11,84.85,530.53,160.43,526.62,178.68Z"/><path class="d" d="M542.7,131.22C544.16,86.67,517,57,502.82,53.64,527.56,73.21,541.92,116.67,542.7,131.22Z"/><path class="d" d="M221.35,31.74c-58.64,27.37-110.44,146.61-38.11,217C147.07,201.81,140.23,89.41,221.35,31.74Z"/><g class="e"><path class="f" d="M699,1V699H1V1H699m1-1H0V700H700V0Z"/></g></svg>