<svg xmlns="http://www.w3.org/2000/svg" viewBox="0 0 700 700"><defs><style>.a{fill:#8954af;}.b{fill:#684487;}.c{opacity:0;}.d{fill:red;}</style></defs><path class="a" d="M574.84,168.25C562.61,92.28,504.16,25.09,442.21,0H279.05C209.91,18.88,143.5,78.44,110.91,133.07a175.53,175.53,0,0,0-23.58,72.55c-7.63,40.69-4.06,108,32.38,152.57-11.87-20.57-19.41-45.46-23.8-70.85a234.7,234.7,0,0,0,55.4,93.33c-9.86-29.57-10.91-76.75-4.79-120-2.56,47.41,6,94.77,25,131.72.32-39.43,10.42-66.14,39.09-102.63C234.87,258.89,282,172.7,314.08,107.45,280.31,185.78,240,266.22,213.54,306.39,251,254.85,290.29,193.51,319.21,110.45c.39,24,6.78,44,14.54,56.5,15.79,25.5,37.22,73.62,35.85,103.26,3-31.75-1.2-53.92-6.87-72.36,20.65,35.6,44.74,72.46,37.48,99.41,10.43-24.76,14.34-48.21,17-71.67,2.6,26.06-1.31,71.67-5.22,88.62,22.78-23.73,40.7-62.65,49.78-101.18,9-6.91,19.06-8.48,27-8.48,18.67,12.52,15.3,57,7.61,87.18,4.6,14.37,7,28.26,5.5,39.42,5.21-7.82,10.43-19.55,15.64-33.89,0,7.82,1.3,19.55-2.61,39.1,22.16-27.37,31.28-79.49,33.88-101.65,2.61,10.43,5.22,20.85,5.22,30,6.51-30,3.91-52.12,3.91-79.49,2.6,9.12,10.42,24.76,10.42,35.19,3.91-30-5.21-66.46-16.94-102.95C557.9,126.55,570.93,151.31,574.84,168.25Z"/><path class="a" d="M369.6,270.21c-.19,2-.41,4.09-.66,6.2A47.69,47.69,0,0,0,369.6,270.21Z"/><path class="b" d="M468,170.86a232.33,232.33,0,0,1-4.23,32.8c0,2.74-.11,5.42-.22,8a42.56,42.56,0,0,1,21.07-7c3.8-39.25-9.88-93.87-33-128.63C465.28,109.44,469.2,147.7,468,170.86Z"/><path class="b" d="M275.11,31.42c-91.22,73-142,202-122.5,307.55C123.94,196.92,174.77,110.91,275.11,31.42Z"/><path class="b" d="M148.7,137C113.52,195.62,114.82,288.14,137,357.21,100.49,272.5,107,186.5,148.7,137Z"/><path class="b" d="M318.11,74.42C268.59,181.28,215.16,191.71,172,328.69,207.35,216.47,292.05,167,318.11,74.42Z"/><path class="b" d="M269.9,122.64c-11.73,19.55-48.22,61.25-59.95,88.62C223,172.16,251.65,140.88,269.9,122.64Z"/><path class="b" d="M243.83,134.37c-24.76,30-39.09,57.34-52.12,100.34C199.53,186.5,223,155.22,243.83,134.37Z"/><path class="b" d="M219.07,51c-35.18,19.54-73,53.43-88.61,87.31C167,95.27,193,66.6,219.07,51Z"/><path class="b" d="M359.82,10.57C325.93,77,337,129.16,347.44,158.8c11.07,30,45,65.49,52.77,104.58,2.61-31.27-39.09-79.49-49.52-119.89S337.66,73.12,359.82,10.57Z"/><path class="b" d="M382.62,13.17c56.69,40.08,88.94,139.77,59.62,245.32C467.65,184.21,463.74,57.16,382.62,13.17Z"/><path class="b" d="M402.17,102.12c21.5,46.91,27.37,145.62,14.66,196.45C437.35,240.9,426.6,139.26,402.17,102.12Z"/><path class="b" d="M372.85,51.29c-17.6,83.08,42,102.63,41,172C408,152.94,348.41,129.48,372.85,51.29Z"/><path class="b" d="M156.85,152c-14.66,18.57-20.53,70.37-21.5,82.1C133.39,194,143.16,170.53,156.85,152Z"/><path class="b" d="M117.75,151c-13.68,29.33-16.61,51.8-17.59,71.35C99.18,178.35,109,165.64,117.75,151Z"/><path class="b" d="M439.31,141.21c6.84,25.41,6.84,53.76,0,82.1C453,181.28,446.15,158.8,439.31,141.21Z"/><path class="b" d="M480.36,92.34c16.61,29.32,23.46,78.19,24.43,98.72C513.59,145.12,492.09,109.93,480.36,92.34Z"/><path class="b" d="M490.13,46.4C518.48,70.84,540,129.48,544.87,149,547.8,98.21,500.88,50.31,490.13,46.4Z"/><path class="b" d="M518.48,110.91c8.79,18.57,11.72,46.92,13.68,55.71C537.05,131.44,524.34,122.64,518.48,110.91Z"/><g class="c"><path class="d" d="M699,1V699H1V1H699m1-1H0V700H700V0Z"/></g></svg>