<svg xmlns="http://www.w3.org/2000/svg" viewBox="0 0 700 700"><defs><style>.a{fill:#ffe97b;}.b{fill:#edc05d;}.c{opacity:0;}.d{fill:red;}</style></defs><path class="a" d="M251.65,10.57c-10.54,5.27-19.46,13.31-27.11,23.48-21.4,10.52-45.34,20.18-66.71,20.83-17,0-18.25-2.61-48.22-1.31-19.25,8.67-22.15,33-23.93,61.9-.78,8.89-1.31,18.22-1.73,27.32-.13,1.53-.26,3.07-.4,4.61.06-.29.14-.57.22-.85-.53,11.8-.92,23-1.53,32.13-.55,8.24-.4,22,.41,39.29-12,177.4,47.27,302.25,23,366C135.34,512.33,88.9,444.2,84,240.91c4.47,66.16,16.07,162.63,33.47,216.64,24.76,76.89,2.6,156.38-18.25,183.75,22.87-29.59,36-68.2,42.49-105.08-1,54.56-13.35,127.85-30.76,155.9,33.88-43,39.1-65.16,49.52-93.82.7,23.89,5.59,51.58,14.22,77.13A173.08,173.08,0,0,0,186.2,700h7.4c-8.74-37.5-10.24-77.52-8.41-86.07,5.21,20.82,9.78,52.78,31.93,79.5C214.51,683,209.3,673.88,204.88,656c-10.36-44-9.23-69.78-1.44-109.82,2.93-9.85,5.4-20,7.46-30.34-4.37,54.36-4.86,120.26,13.39,156.09,1.07-.54-5.22-16.29-5.22-28-9.77-87.32-.31-128.33,5.22-197.16-5.24-8.85-11.37-18.82-17.77-29.33a43.65,43.65,0,0,0-9.43-1.87c-6-1.33-13.34-2.66-18-13.33-.61-2.76-.42-6.5,4-24.9-4.07-7.39-7.91-14.7-11.3-21.77-2-8-4-19.33-3.84-25.33-3-13-1.66-20.33-21.66-40.33-2-7,.38-17.34.38-31.34-3-20-15.33-57.33-6-90A141.61,141.61,0,0,1,154.69,138,59.8,59.8,0,0,1,180,163c25.64-34.8,61.87-60.45,99.7-75.87,4.65,6.49,9.59,15.86,14.63,27.45,26.13,98.75,61.48,312.1,47.26,395.06,15.86-57.08,5.19-187.94-13.52-289.32,15.6,63.2,27.14,134.93,26.55,187.67-.84,75.59,2.61,185.05-13.35,230.52,9.87-13.07,21.12-40.78,30.77-84.31.81,39.74,9.6,75.44,26.89,119.64-5.21-27.37-13-73-6.51-96.44-3,25.79,15.17,81,35.5,122.56h12.57c-6.67-46.62-13-128.31-2.46-179.89-3.91,19.54,0,102.95,19.54,131.61C431.49,585.26,468,311.6,458.86,228.2q-.63-5.7-1.4-11.44c10-10.13,22-12.21,31.29-12.21,25.35,17,10.08,92.88-1.5,112-4.91,8.34-10,14.19-15.19,17.83-2.44,22.89-4.59,52.43-5,83.79-9.24,79.75-13.84,179.28,32.15,219.22,49.52,43,119.9-9.12,134.23-24.76,13.38-14.59,37-28,60.19-28.72,2.18.77,4.29,1.63,6.33,2.55V524.35c-49.49-62.57-96.79-171.5-109.52-264.88C575.66,150.82,559.2,79.64,495.35,13.17,489.41,7.66,481,3.32,471,0H307.4a266.06,266.06,0,0,0-30.88,7.93C267.41,5.81,258.91,6.5,251.65,10.57Zm416,517.81c-27.4-7.48-47.51-21.22-56.36-50-3.86-12.53-9.68-34.88-15.48-59.71C613.53,454.43,637.71,492.09,667.69,528.38Zm-154.1,79c57.34,35.18,112.07-22.16,140.74-27.37,12.4-2.25,26-.6,37.91,3.36-17.64-1.79-32-4.8-58.76,16.19-25.35,19.83-70.37,62.55-119.89,30-41.33-27.19-48.16-100.67-46.26-181.05C469.17,514,480.38,580.71,513.59,607.42Z"/><path class="b" d="M182,670.15c-.6-2.46-1.16-4.95-1.7-7.45.45,2.6,1,5.11,1.62,7.51Z"/><path class="b" d="M206.52,417.42a43.65,43.65,0,0,0-9.43-1.87c-6-1.33-13.34-2.66-18-13.33-.61-2.76-.42-6.5,4-24.9-4.07-7.39-7.91-14.7-11.3-21.77-2-8-4-19.33-3.84-25.33-3-13-1.66-20.33-21.66-40.33-2-7,.38-17.34.38-31.34-1.75-11.64-6.65-29.15-8.61-48.19-.33,1.66-.68,3.27-1.05,4.8C113.52,269.9,171.2,418.61,174.77,455c6.51,66.46-13,160.29,5.53,207.75C170.15,603.49,207.49,494.2,210,452.34a259.9,259.9,0,0,0-.21-29.64Z"/><path class="b" d="M130.46,223.31c-19.55,125.1,20,176.91,30.3,225.77,14.33,67.77-8.15,148.24-19.88,176.91,24.76-46.92,33.89-113.38,26.07-165.5S114.82,325,130.46,223.31Z"/><path class="b" d="M143.16,572.88c14.34-50.82,4.24-89.59-1-124.77s-40.07-73.31-40.73-214c-8.14,132,35.19,194.5,37.8,221.86S152.29,510.33,143.16,572.88Z"/><path class="b" d="M496.46,291.33c-2.77,11-6.12,20.12-9.21,25.22-4.28,7.27-8.69,12.65-13.2,16.32,3.38,40.64-2.7,101.07,8.26,154.66-2.6-104.26,14.34-135.52,14.34-189C496.65,296.24,496.58,293.82,496.46,291.33Z"/><path class="b" d="M428.51,105.25c14.07,34.34,23.88,73.55,29,111.52A39.77,39.77,0,0,1,478,205.61C466.15,170.64,449.11,134.44,428.51,105.25Z"/><path class="b" d="M526.62,109.61c15.64,41.7,39.1,86,28.67,263.24C547.4,507,610,548.77,638.69,548.77c27.37-3.9,43,9.13,49.52,14.34-13-27.37-32.58-9.12-58.64-26.06s-78.19-54.74-67.76-173.32-14.38-222.85-31.28-260.64C508.38,53.57,468,.14,418.46,9.26,460.16,6.66,509.4,63.68,526.62,109.61Z"/><path class="b" d="M593.08,570.93c-36.49,22.15-63.85,30-87.31-30,13,57.34,41.7,66.46,86,36.48,19.55-18.24,79.49-19.54,103-5.21C683,559.2,629.57,548.77,593.08,570.93Z"/><path class="b" d="M574.84,565.72c6.51-6.52,7.82-2.61,22.15-9.13-41.59-8.82-78.31-51.79-61.8-224.41C527.26,394.69,504,503.18,574.84,565.72Z"/><path class="b" d="M535.19,332.18c.83-6.53,1.49-12.56,1.86-18Q536,323.42,535.19,332.18Z"/><path class="b" d="M538,294.66C554.64,173.46,504.47,77,479.71,66.6,505.77,101.79,551.71,176.4,538,294.66Z"/><path class="b" d="M434.1,82.24c37.79,43,76.88,126.41,76.88,207.21C513.59,190.4,469.28,100.49,434.1,82.24Z"/><path class="b" d="M267.29,77c-19.55,0-31.27,13-40.4,26.06,3.26-11.73,3.91-24.76,18.9-36.49-25.41,6.52-55.39,65.16-61.9,86q1.1-6.11,2.26-12.1a147.19,147.19,0,0,0-5.52,18c-.24-2.93-4-9.14-9.19-16.18a17.22,17.22,0,0,1,.72,2.49c-.36-1-.73-2-1.09-3-8.3-11.08-20.21-24-28.28-29.45,4.35,5.49,7.87,11,8.52,16.8-4.61-5.94-12.23-14.2-20.31-18.72-9.43,3.31-17,19.44-17.48,52.6,5.21-15,8.47-22.16,11.73-25.41-6.52,26.71-10.43,74.93-3.26,117.93-2.61-54.73,5.21-80.14,8.47-89.26-2,15-1.3,35.83,0,46.26,4.56-20.2,7.56-44,11.73-52.13,6.91-1,6.51-.65,12.38,1.3-2-5.21.65-3.25,0-7.81,7.16,2,5.86,3.91,11.07,8.47-1.95-4.56-1.95-7.82-4.56-12.38,5.87.65,13,9.77,18.9,20.2,4.56-12.38,24.76-31.93,37.14-39.1-4.56,5.86-5.86,12.38-6.52,14.34,10.43-11.08,20.2-12.38,33.23-21.51-3.25,7.17-5.86,10.43-8.47,13,15.64-5.86,16.29-11.72,26.07-16.94a57.13,57.13,0,0,0-5.22,12.38c13-6.51,17-8.47,22.81-9.77-5.86,4.56-5.86,7.82-7.82,9.77,7.74-1.72,18.32-6,27.81-6.45C287.46,96.69,276.13,77.8,267.29,77Z"/><path class="b" d="M404.12,299.87C401.28,253,375.45,69.21,324.63,26.21,374.15,88.76,395.77,239.92,395,309,393.7,426.28,383,496.87,377.25,534.55,397.61,457.55,406.73,342.87,404.12,299.87Z"/><path class="b" d="M286.84,35.33c20.85,20.85,87.31,185.05,93.83,336.21,0-156.38-66.46-321.88-91.22-345.33s-84.71,43.65-86,65.15C212.56,73.77,266,14.48,286.84,35.33Z"/><path class="b" d="M108.31,74.42c11.72,6.52,35.18,11.73,66.46,61.25-10.43-20.85-44.31-76.89-69.07-69.07C91.36,80.94,94,86.15,92.67,113.52,97.88,95.27,97.88,74.42,108.31,74.42Z"/><path class="b" d="M161.73,64c14.34,15.64,19.55,49.52,19.55,62.55C185.19,88.76,176.07,65.3,161.73,64Z"/><path class="b" d="M423.67,620.45c-13-140.74,61.25-316.67-5.21-497.81C474.49,301.17,408,488.83,423.67,620.45Z"/><path class="b" d="M423.67,210c7.82,30,7.82,142.05,2.61,170.72C440.61,320.72,434.1,238.62,423.67,210Z"/><path class="b" d="M422.37,100.49C408,40.54,367.64-3.77,333.75,4.05,374.15,15.78,396.3,37.93,422.37,100.49Z"/><path class="b" d="M366.33,57.48c19.55,31.28,35.19,106.86,40.4,165.5C408,150,387.18,74.42,366.33,57.48Z"/><path class="b" d="M410.64,478.4c-13,44.31-20.85,143.35,15.64,191.57C408,640,400.21,525.32,410.64,478.4Z"/><path class="b" d="M681.7,524c-39.1-49.52-82.1-109.46-91.22-175.92C595.69,414.55,637.39,492.74,681.7,524Z"/><g class="c"><path class="d" d="M699,1V699H1V1H699m1-1H0V700H700V0Z"/></g></svg>