<svg xmlns="http://www.w3.org/2000/svg" viewBox="0 0 700 700"><defs><style>.a{fill:#ffa300;}.b{fill:#d80;}.c{opacity:0;}.d{fill:red;}</style></defs><path class="a" d="M151.52,85.82c-10.77-26.77-12.26-70.69-12.26-70.69-25.42,34.21-12.71,94.8-12.71,94.8-5.86-4.88-16.62-9.77-25.41-50.82C86.48,109,110.91,149,130.46,166.62c-8.8,4.89-37.14-16.61-52.78-40.07,3.91,47.89,41.05,54.73,70.37,54.73-1-12.7-2.17-19.11-.22-26.93,2,10.75,17.81,20.09,19.77,23,12.71-22.48,43-51.8,52.78-54.73-6.84,9.77-10.75,24.43-10.75,29.32,27.36-31.27,44-36.16,51.8-41.05,0,0-4.89,13.68-8.8,19.55,14.66-8.8,24.44-14.66,32.25-19.55-1,8.8-9.77,22.48-9.77,22.48,19.55-7.82,35.19-23.46,41.05-26.39-1,10.75-6.84,22.48-6.84,22.48C324,119.71,345.48,108,345.48,108c-2,9.77-6.84,16.61-8.8,21.5,17.6-5.86,30.3-12.7,35.19-14.66,0,0-8.8,28.34-16.61,40.07,14.66-6.84,21.5-6.84,27.36-12.7,0,0-2.93,23.45-6.84,31.27,12.71-6.84,9.77-2.93,17.59-9.77,0,0,0,42-3.91,60.6,5.87-8.8,8.8-10.75,11.73-17.6,0,0-1,44-6.84,61.58,20.18-9.17,32.61-19.21,53.46-37.38,10.73-22.51,28.41-26.34,40.94-26.34,19.48,13.07,15,60.9,6.58,91,2,14.25,4.65,27.59,9.46,37.21,0-12.71,0-13.69,4.89-22.48,1.95,13.68,14.66,32.25,26.39,39.09-6.84-23.46-12.71-81.12-4.89-110.44,4.89,4.88,6.84,4.88,10.75,8.79-3.91-12.7-5.86-12.7-4.88-23.45a145.45,145.45,0,0,0,12.7,8.79s-7.82-45-8.79-57.66c8.79,5.86,11.72,3.91,17.59,5.86,0,0-19.55-30.3-21.5-39.09,10.75,1.95,13.68,1.95,20.52,3.91,0,0-21.5-28.35-25.41-36.17,7.82-1,15.64,6.85,19.55,10.76S510.66,66,494,59.11a68.23,68.23,0,0,1,31.28,9.77c4.88,2.94-49.85-42-82.1-49.84,7.82,0,18.57-2,32.25,2.93C460,12,437,4.84,413.05,0H278.63a234.1,234.1,0,0,0-25.07,8.07c1.25-2.54,2.52-5.24,3.8-8.07H233.55C223.2,9.14,213.24,20.21,206,32.28c-.75.47-1.49.93-2.24,1.42q-4.77,3.09-9.23,6.44C194.9,29,195.67,15.22,196.3,0H183.1c-11.74,20-22,49.78-25.25,77C155.61,79.93,153.5,82.89,151.52,85.82Z"/><path class="b" d="M166.62,160.76c2.93-67.44,18.57-123.15,20.53-144.65C171.51,79.64,157.83,114.82,166.62,160.76Z"/><path class="b" d="M129.48,56.18c-6.84,30.3-3.91,73.3,29.32,103.6C145.12,140.23,125.57,93.32,129.48,56.18Z"/><path class="b" d="M186.17,146.1A314.69,314.69,0,0,0,238,14.15C224.29,55.2,192,132.41,186.17,146.1Z"/><path class="b" d="M345.48,5.36c-8.8,1.95-57.66,32.25-68.41,37.14,16.61-17.6,19.54-33.24,22.47-39.1C289.77,23,273.16,40.54,263.38,54.22c22.48-5.86,67.44-38.11,73.3-45,0,0-39.09,49.85-48.86,61.58,27.36-9.77,48.86-24.44,61.57-29.32-9.77,20.52-45,48.87-51.8,56.69,36.16-23.46,52.78-45.94,61.57-61.58-9.77,2-46.91,19.55-55.71,22.48C326.91,38.59,336.68,19,345.48,5.36Z"/><path class="b" d="M229.17,122.64c10.75-18.57,42-51.8,69.4-72.33C281,54.22,244.81,85.5,229.17,122.64Z"/><path class="b" d="M490.13,109.93c-50.82-23.45-99.69,5.87-116.3,22.48C409,106,465.7,100.16,490.13,109.93Z"/><path class="b" d="M364.05,102.12c26.39-15.64,56.69-18.57,71.35-19.55C397.28,68.88,373.83,93.32,364.05,102.12Z"/><path class="b" d="M416,238.46c24.53-24.1,53.67-53.44,69.29-63.32C472.85,182.36,433.56,207,416,238.46Z"/><path class="b" d="M485.24,175.14c2.42-1.42,3.82-2.17,3.82-2.17A37.84,37.84,0,0,0,485.24,175.14Z"/><path class="b" d="M419,212.48c23.85-32,41.32-54.79,49.49-61.42C444.48,159.53,425.46,197.16,419,212.48Z"/><path class="b" d="M395.33,151c27.36-21.5,54.73-35.18,66.46-38.11C426.6,112.87,401.19,139.26,395.33,151Z"/><path class="b" d="M178.35,130.46C182.26,117.75,195,85.5,195,63,190.08,77.68,181.28,101.14,178.35,130.46Z"/><path class="b" d="M102.22,88.76c2.18,43.87,16.94,64.29,38.41,79.79C131.25,160.17,104.4,124.81,102.22,88.76Z"/><path class="b" d="M378.71,38.59c-5.86,12.7-29.32,50.82-46.91,65.48C360.14,86.48,376.76,58.13,378.71,38.59Z"/><g class="c"><path class="d" d="M699,1V699H1V1H699m1-1H0V700H700V0Z"/></g></svg>