<svg xmlns="http://www.w3.org/2000/svg" viewBox="0 0 700 700"><defs><style>.a{fill:#5e513c;}.b{fill:#493e2e;}.c{opacity:0;}.d{fill:red;}</style></defs><path class="a" d="M556.59,240.9c3.91-34.21,8.8-123.15-39.09-169.08S406.08,17.08,362.1,13.17,288.79,20,248.72,37.61c-12.63,6.31-93.51,50.91-130.49,57.76-11-3.71-21.47-4.6-29.8-1.07-25.41,10.75-6.69,46.87-7.82,76.23-.92,23.87-8.3,47.75-13,70.51-7.54,18.86-17,42.1-12.37,65.35,5.87,29.32,61.58,48.86,37.14,97.73,24.44-27.36-2.93-63.53-24.43-88C57,303.76,59.17,289.35,63.58,274c.08,13.53,3,26.39,11.17,38.3,27.37,40.07,42,51.8,39.09,78.19-4.55,41-24.43,68.42,48.87,96.76-27.36-23.46-40.07-42-21.5-85s8.56-51.61-16.62-83.08c-18.44-23-3.85-63.83,14.35-101.22-2.24-15.8-2.94-33.13,1.69-49.32a138.39,138.39,0,0,1,5-13.18c12.82,4,26.35,9.84,36.62,24-1.95-11.73,32.46-56.62,66.67-83,13.88-2.12,32.94-2.29,57.34,14.33,5.67,26.5-3.5,71.82.12,99,3.91,29.32,48.87,55.71,48.87,78.19s-14.19,47.39-3.91,57.66c31.27,31.28,44,27.37,28.34,85,32.25-30.3,11.73-65.48,1-83.07s18.57-41.05,23.45-70.37-12.65-28.26-30.29-60.6c-4.27-7.83-4.27-15.53-2.63-24.05,11.51,25.05,49.69,50.71,50.52,72.92,3.91-12.71,1.95-15.64,3.91-23.46,3.91,12.71,2.93,30.3,1.95,40.07C438.45,269,447,244.8,451.46,224.32c10.79-16.71,26.09-19.77,37.29-19.77,25.35,17,10.08,92.88-1.5,112A72.49,72.49,0,0,1,479.11,328c10.27,21.34,26.49,39.76,42.3,53.67-5.87-8.79-4.89-18.57-7.82-29.32,5.86,13.69,16.61,23.46,32.25,34.21-10.75-10.75-12.7-26.39-12.7-37.14,4.88,2,11.73,6.84,18.57,8.8-11.73-12.71-15.64-25.41-14.66-42S552.68,275.11,556.59,240.9Zm-178.9-74.25c.42-1.85.82-3.75,1.18-5.71l4.12,3.65A33.78,33.78,0,0,0,377.69,166.65Z"/><path class="b" d="M387.51,138.28c-3.91-60.6-85-94.81-120.22-106.54-27-1.92-93.87,64.56-89.18,133.88a15.25,15.25,0,0,0-.74,3.93c-16.6-16.6-64.44-46.87-70.36-45-9-4.31-14.61-4.65-16.62,1,1,11.73,21.5,57.67,15.63,87s-30.29,62.55-19.54,84.05,43.43,67.66,40.07,85c-5.86,30.3-26.39,59.62,12.71,89.92-18.57-31.27-12.71-41.05,5.86-90.89C154.83,354.6,108,324,109.93,297.59c3.42-46.07,15-69,27.61-92.9-.82-12-.28-24.35,3.09-36.14q1.35-4.16,2.93-8.16c10,5.17,16.68,10.83,18.17,13.07,1.31.87.44-6.08-1.95-7.82-7.29-5.3,16.62,4.89,22.48,13.69,15.64-29.32,25.41-40.07,39.09-52.78-4.45,8.69-4,5.65-6.84,15.64,7.6-11.73,23.46-29.32,38.12-33.23-8.8,8.79-10.75,12.7-11.73,17.59,13.47-8.08,26.11-21.09,41.71-23.17,5.83,1.61,9.79,4.32,11.07,7.53,11.75,29.37,1.89,45.07.72,77.37-6.18,26.61-7.22,50.46,19.94,76,30.16,28.4,14.53,56.75,9.64,71.41s1.95,32.25,21.5,39.09c-16.61-8.79-22.48-21.5-14.66-43s12.67-51.55-12.23-70.25c-12.47-15.16-20.64-29.94-22.35-46.19,10,37.33,60.45,50.31,54.13,78.32-6.84,30.3-17.59,53.76,7.82,66.46S390.44,411,367,449.08c56.69-43,31.28-83.07,20.53-98.71S408,303.45,411,281s-17.6-42-31.28-67.43S389.46,166.62,387.51,138.28Zm16.61,138.79c-4.88,29.32-34.2,52.77-23.45,70.37s31.27,52.77-1,83.07c15.64-57.66,2.93-53.75-28.34-85-10.28-10.27,3.91-35.18,3.91-57.66s-45-48.87-48.87-78.19,12.7-84.06,2.93-108.49S261.43,60.09,249.7,65c-14.66,8.8-66.46,66.47-71.35,92.86,4.89-60.6,58.64-122.18,86-118.27,43,16.62,113.65,42.75,116.31,95.79,1.95,39.09-18.57,59.62-6.84,81.12C391.47,248.81,409,247.74,404.12,277.07Z"/><path class="b" d="M170.53,137.3c-7.82-28.34-37.14-35.18-45.94-36.16C143.16,112.87,161.73,126.55,170.53,137.3Z"/><path class="b" d="M379.69,81.59c37.14,31.28,80.14,97.74,63.53,163.22C475.47,187.15,426.6,112.87,379.69,81.59Z"/><path class="b" d="M421.72,248.72c10.75-49.84-14.66-80.14-22.48-90.89C413.9,184.21,424.65,214.51,421.72,248.72Z"/><path class="b" d="M482.14,204.94a54.84,54.84,0,0,1,6.61-.39c7.38,4.95,11.31,14.9,12.9,27,11.85,11.71,24.17,22,27.58,41.63,14.66-39.1-39.1-57.67-50.83-117.29C475,177.87,477.18,193.19,482.14,204.94Z"/><path class="b" d="M541,153.92c6.84,28.34,11.72,70.37,1,100.67C560.5,208.65,552.68,173.46,541,153.92Z"/><path class="b" d="M524.45,135.91c-28.61-.8-59.55-23-100.94-68.56C442.9,91.77,478.56,147.83,524.45,135.91Z"/><path class="b" d="M531.18,134.37c-10.75-3.91-46.91-31.28-52.78-58.64C479.38,101.14,506.75,131.44,531.18,134.37Z"/><path class="b" d="M375.78,149c6.84-24.44-13.68-56.69-44-72.33,25.41,24.44,41.05,45.94,35.18,69.4s-28.34,59.62,1,87c20.53,16.62,21.5,26.39,20.53,43S368,319.09,366,337.66s28.34,45.94,25.41,64.51c11.73-22.48-11.73-45-17.59-63.53s15.63-39.1,22.47-58.64,1-26.39-26.38-52.78C351.35,210.6,368.94,173.46,375.78,149Z"/><path class="b" d="M372.85,276.09c2.93-25.41-39.1-29.32-48.87-68.42-5.64-22.54,23.46-59.62-3.91-100.67,21.5,51.8-7.22,74.72,0,103.6,10.75,43,44.36,39.06,43,65.49-1.95,38.12-23.45,49.84-1,74.28C348.41,318.11,370.47,296.66,372.85,276.09Z"/><path class="b" d="M96.25,219.4c5.87-22.48,2.93-32.25-5.86-57.67,2.93,21.51,10.75,40.08-4.89,71.35S67.91,282,80.61,303.45C66,272.18,90.39,241.88,96.25,219.4Z"/><path class="b" d="M531.18,182.26c6.84,18.57,9.78,63.53,4.89,73.3C549.75,229.17,537.05,192,531.18,182.26Z"/><g class="c"><path class="d" d="M699,1V699H1V1H699m1-1H0V700H700V0Z"/></g></svg>