<svg xmlns="http://www.w3.org/2000/svg" viewBox="0 0 700 700"><defs><style>.a{fill:#665352;}.b{opacity:0;}.c{fill:red;}</style></defs><path class="a" d="M247.81,443.92c4.77-.89,7.16-1.84,12.46-5.23,8.15-3.82,35-3.14,50.31-6.47,9.33-3.33,17.33-10,20.67-16.67-4-4.66-6,8.67-21.34,14-14.61,2.35-31.38-1-53.81,4.05-4.32,2.41-2,5-9.17,6.8-4.14,1.25-8.44-4.68-10.89-1.23.86,4-3.88,3.91-3.45,5.92-1,3.48,4.14,6.09,5.22.12C240.2,444.26,244.94,444.86,247.81,443.92Z"/><g class="b"><path class="c" d="M699,1V699H1V1H699m1-1H0V700H700V0Z"/></g></svg>