<svg xmlns="http://www.w3.org/2000/svg" viewBox="0 0 700 700"><defs><style>.a{fill:#8e594e;}.b{opacity:0;}.c{fill:red;}</style></defs><path class="a" d="M253.07,444.55c4.82-1.2,6.27-3.12,11.51-7,8.13-4.49,19.33-2,46-10,20-9.33,28.4-28.49,27.73-35.15-4.66,8.66-9.73,19.82-23.73,27.82-12.05,4.87-30,5.52-52.67,12-4.29,2.78-2.41,5.37-9.63,7.7-4.17,1.53-8.64-4.68-11-.88-2.32,8.66-10.52,3.36-10,5.48-.87,3.76,11.53,7.24,12.32.81C246.06,444.2,250.19,445.69,253.07,444.55Z"/><g class="b"><path class="c" d="M699,1V699H1V1H699m1-1H0V700H700V0Z"/></g></svg>