<svg xmlns="http://www.w3.org/2000/svg" viewBox="0 0 700 700"><defs><style>.a{fill:#916f6d;}.b{opacity:0;}.c{fill:red;}</style></defs><path class="a" d="M247.81,443.92c4.77-.89,7.16-1.84,12.46-5.23,8.15-3.82,33.08-5.25,51.33-3.94,7.82.65,14.33-.65,18.89-3.91-4-4.67-9.12-1.3-20.58-1.29-14.61,2.35-31.38-1-53.81,4.05-4.32,2.41-2,5-9.17,6.8-4.14,1.25-8.44-4.68-10.89-1.23.86,4-3.88,3.91-3.45,5.92-1,3.48,4.14,6.09,5.22.12C240.2,444.26,244.94,444.86,247.81,443.92Z"/><g class="b"><path class="c" d="M699,1V699H1V1H699m1-1H0V700H700V0Z"/></g></svg>