<svg xmlns="http://www.w3.org/2000/svg" viewBox="0 0 700 700"><defs><style>.a{fill:#ebf1f2;}.b{fill:#687173;}.c{fill:#8c6761;}.d{opacity:0;}.e{fill:red;}</style></defs><path class="a" d="M237.41,433.55c10.12,2.11,10.89-4.22,21-4.75,27.16,3.17,55.67-3.16,76.44-9.5,4.79,1.06,2.13,3.7,1.6,7.39-21.54,14.36-44.54,21.36-51.65,23.22-28.64,3.64-33.64,4.39-37.8,2.64C241.14,444.11,237.41,436.19,237.41,433.55Z"/><path class="b" d="M334.58,418.22c-2.92,1.08-9.62,4-18.44,7.39-.73-1.26-1.2-1.27-2.1-1.94a6.84,6.84,0,0,0,.6,2.53c-2.69,1-5.55,2.11-8.56,3.2a10.45,10.45,0,0,0-2.79-3.61,15.34,15.34,0,0,0,1.16,4.2c-3,1.06-6.05,2.12-9.22,3.16a11.56,11.56,0,0,0-2.9-3.43,15.49,15.49,0,0,0,.93,4.08c-3.17,1-6.41,2-9.69,2.94a45.21,45.21,0,0,0-3-4.77,17.33,17.33,0,0,0,1.46,5.19c-4.24,1.18-8.52,2.24-12.78,3.15-1.23-2.39-2.45-4.83-3.18-6.17a17.21,17.21,0,0,0,1.94,6.43c-4.42.91-8.81,1.63-13.06,2.1a53.92,53.92,0,0,1-2.71-7.45c-.5,1.69-.16,4.56,1.32,7.59-1.91.19-3.81.33-5.66.41,1.35.73,3.6,1.09,6.5,1.13a19.66,19.66,0,0,0,3.84,4.54,21.48,21.48,0,0,1-2.54-4.54,94.2,94.2,0,0,0,13.77-1.49,23,23,0,0,0,3.43,3.69,22.57,22.57,0,0,1-2.39-3.87c4.12-.73,8.55-1.68,13.1-2.81a18,18,0,0,0,4.21,4.18,27.69,27.69,0,0,1-2.75-4.55c3.22-.82,6.48-1.73,9.73-2.71a18.92,18.92,0,0,0,2.6,3.1c.28-.48,0-2-.68-3.69,3.16-1,6.3-2,9.35-3.13a12.79,12.79,0,0,0,2.08,2.48,6.71,6.71,0,0,0-.67-3c3-1.09,5.82-2.23,8.53-3.4a14.11,14.11,0,0,0,2.64,3.39c.2-.27-.26-2.05-1.1-4.07C324.87,425.21,330.94,421.7,334.58,418.22Z"/><path class="b" d="M278.08,430.72c2.57,5.82,8.5,9.83,13.33,11.83,1.84-4.5,3-10.16,2.17-12.83C293,428,277.91,428.39,278.08,430.72Z"/><path class="a" d="M277.91,429.15c.34,5.54,10.5,10.92,12.84,11.9,1.33-3.91,1.83-10.27.5-13.86C290.62,425.51,277.75,426.87,277.91,429.15Z"/><path class="c" d="M337.91,415.55c-9,3.5-31.91,13.53-65.41,9.42-9.06,0-18.51-5.81-26.93,1.31-6.47,5.82-15.51,3.31-22,2C225.53,440,243.4,443.65,241.06,460c2.59,5.83,3-5.28,40.57-5.93,14.88.65,35.62-18.53,54.95-13.19C341.57,438.66,341,422.87,337.91,415.55Zm-5.5,12.5c-16.5,9.5-45,19.5-48.5,22-27-.5-30.5.5-35.5,2.5-3.5-7.66-9.16-14.83-9.16-17.33,9.5,2,10.16-3.67,19.66-4.17,25.5,3,52.5-4,72-10C335.41,422.05,332.91,424.55,332.41,428.05Z"/><g class="d"><path class="e" d="M699,1V699H1V1H699m1-1H0V700H700V0Z"/></g></svg>