<svg xmlns="http://www.w3.org/2000/svg" viewBox="0 0 700 700"><defs><style>.a{fill:#5e4a3c;}.b{fill:#0c0c0b;}.c{fill:#f2f2f2;}.d{opacity:0;}.e{fill:red;}</style></defs><path class="a" d="M181.28,303.35c-5.64-2.61-46,1.3-46,13.9-.44,8.25,13.46,36.05,19.11,39.09,4.34,1.3,24.76,2.17,30.84-6.95C190,343.31,194.75,311.6,181.28,303.35Z"/><path class="a" d="M318.55,259.47c-10.43-7-98.17,22.16-99.48,39.53-.43,6.52,18.25,33.45,28.67,36.49,11.3,1.74,63.86-13.9,73-23C323.33,305.52,326.8,272.07,318.55,259.47Z"/><path class="b" d="M325.8,259.35a12.77,12.77,0,0,0-4.55-6.13c-13,0-72,13.17-102,34.33a11.68,11.68,0,0,0-5.82,10.24c-5.78,2.86-14.44,6.36-22.32,7.78-3.48-4.28-8.1-8.25-12.53-9.35-11.33,2-42.67,5.33-46.67,14-1.32,2.41-1.65,5.58-1.2,9.21-1.56,1.6-2.44,2.38-3.06,3.68,1.1,6.52,1.14,8.75,2.79,10.88a15.94,15.94,0,0,0,6.11,2.32,92.47,92.47,0,0,0,17.36,23.24c6,.67,30.83,0,35.34-10.66,4.06-5.87,4-18.11,7.12-32.66,5.4-3.06,14.22-5.16,24.15-3.22,7.83,11.3,19.93,24.19,26.73,27.21,7.33-.67,67-12,78-27,1.53-5.12,3.59-18.73,3.62-31.81,15.77-3.16,96.55-40.72,115-47.86,3.58-4.48,4.74-9.41,11-15.08C448.53,223.07,355.84,254.41,325.8,259.35ZM184.58,346.22c-10,5.33-23.33,7.33-28.67,5.33-8-11.33-18-27.33-16-36,8.67-7.66,37.1-10.21,42.67-6.66C189.91,313.55,187.25,338.89,184.58,346.22Zm132.67-37.33c-15.34,14-62,25.33-68,21.33-16.67-10-24.67-24.67-24-31.33,20.66-22,73.41-31.3,86-34.67C319.91,264.22,320.58,298.89,317.25,308.89Z"/><path class="c" d="M149.57,315.07c-2.17-.43-5,1.31-6.3,2.83a41.91,41.91,0,0,0,1.36,5.82,26.8,26.8,0,0,1,6-3C150.05,317.87,149.69,315.8,149.57,315.07Z"/><path class="c" d="M145.62,326.67c2.95,8.17,8.21,17.61,14.59,23.37-4.27-7.71-7.22-18.66-8.93-26.3C149.23,324.69,147.08,325.8,145.62,326.67Z"/><path class="c" d="M237.32,293.79a10.49,10.49,0,0,0-7.39,4.78,36.2,36.2,0,0,0,2.19,5.8,33.18,33.18,0,0,1,7.36-4.17C238.56,297.76,237.81,295.57,237.32,293.79Z"/><path class="c" d="M240.57,303a81.31,81.31,0,0,0-7,4.18c4.61,8.55,12.26,17.79,19,21.15A249.09,249.09,0,0,1,240.57,303Z"/><g class="d"><path class="e" d="M699,1V699H1V1H699m1-1H0V700H700V0Z"/></g></svg>