<svg xmlns="http://www.w3.org/2000/svg" viewBox="0 0 700 700"><defs><style>.a{fill:#5b3324;}.b{opacity:0;}.c{fill:red;}</style></defs><path class="a" d="M297.47,304.69c-2.79-1.62-6.55-.88-9.15-1.25-11.72-21.37-36.24-30.72-55.4-20.87-15.95,8.21-23.23,27.19-19.12,46-8.11-4.4-20.07-2.41-24,6.13-9-19.14-28.54-29.2-44.57-22.55-16.64,6.89-23.22,29.16-14.7,49.73s28.93,31.65,45.57,24.76a27.3,27.3,0,0,0,5.44-3.06c.51-2.26,1.11-4.81,1.8-7.72a23.35,23.35,0,0,1-9.47,7.27c-14.53,6-32.49-4-40.12-22.43s-2-38.21,12.49-44.23,32.49,4,40.12,22.43a44.64,44.64,0,0,1,3.07,11.53c.67-3.3,1.27-6.5,1.78-9.6.09-.07.18-.11.28-.19.09-10.43,15.84-10.65,24-6A50.53,50.53,0,0,0,218.3,341c11.44,22.24,36.53,32.13,56.05,22.09,16-8.23,23.28-27.29,19.09-46.14,3.08-2.34,8.05-3.88,7.32-7.31,14.72-9.46,98.71-51.59,120.59-67.5,2.1-2.83,15.14-7.48,22.52-17.87C396.65,254.94,327.93,289.41,297.47,304.69Zm-25.76,55.17c-17.07,8.8-39.3-.42-49.66-20.58s-4.91-43.64,12.16-52.43,39.3.42,49.65,20.58S288.78,351.07,271.71,359.86Z"/><g class="b"><path class="c" d="M699,1V699H1V1H699m1-1H0V700H700V0Z"/></g></svg>