<svg xmlns="http://www.w3.org/2000/svg" viewBox="0 0 700 700"><defs><style>.a{fill:#9b6f61;}.b{opacity:0;}.c{fill:red;}</style></defs><path class="a" d="M359.27,340.87c6.15-12.52,10.38-24.44,11.34-29.23-2.65,6.73-8.08,17.09-13.91,27.5-4.22-2.42-8.51-2.95-10.62-1.74a53.32,53.32,0,0,1,9.14,4.38c-8,14.19-16.39,27.92-19,32.09,8.12-6.64,15.75-18.58,21.77-30.39,4.22,2.75,7.51,5.51,8.25,6.8A21.94,21.94,0,0,0,359.27,340.87Z"/><g class="b"><path class="c" d="M699,1V699H1V1H699m1-1H0V700H700V0Z"/></g></svg>