<svg xmlns="http://www.w3.org/2000/svg" viewBox="0 0 700 700"><defs><style>.a{fill:#48b795;}.b{fill:#6bddb7;}</style></defs><rect class="a" width="700" height="700"/><polygon class="b" points="20.56 564.79 53.67 535.5 96.58 546.17 78.95 505.62 102.36 468.12 58.35 472.35 29.91 438.5 20.34 481.66 0 489.89 0 510.41 17.45 520.69 20.56 564.79"/><polygon class="b" points="15.58 639.19 6.01 682.35 0 684.78 0 700 68.55 700 88.02 668.8 44.02 673.04 15.58 639.19"/><polygon class="b" points="85.11 379.23 112.66 413.81 123.35 370.91 164.75 355.39 127.25 331.97 125.29 287.8 91.43 316.22 48.82 304.44 65.38 345.43 41.01 382.31 85.11 379.23"/><polygon class="b" points="621.72 366.44 636.72 324.86 594.59 338.24 559.67 311.12 559.38 355.33 522.8 380.15 564.76 394.09 577.06 436.56 603.28 400.96 647.47 402.38 621.72 366.44"/><polygon class="b" points="579.67 118.58 605.89 82.99 650.08 84.41 624.32 48.47 639.33 6.88 597.19 20.27 571.1 0 562.24 0 561.99 37.36 525.41 62.18 567.36 76.12 579.67 118.58"/><polygon class="b" points="338.3 0 327.32 7.45 369.28 21.39 381.58 63.85 407.81 28.25 451.99 29.68 430.73 0 338.3 0"/><polygon class="b" points="689.82 119.99 646.04 113.86 667.81 152.34 648.45 192.09 691.77 183.28 700 191.21 700 108.88 689.82 119.99"/><polygon class="b" points="27.73 92.47 69.92 79.25 104.72 106.52 105.2 62.31 141.88 37.64 99.98 23.53 93.27 0 73.75 0 61.49 16.5 17.3 14.9 42.91 50.94 27.73 92.47"/><polygon class="b" points="197.92 482.11 186.7 451.73 169.41 479.12 137.05 480.41 157.76 505.31 148.99 536.48 179.07 524.49 206 542.47 203.89 510.15 229.31 490.08 197.92 482.11"/><polygon class="b" points="654.03 237.12 642.81 206.74 625.52 234.12 593.16 235.41 613.87 260.31 605.09 291.49 635.17 279.49 662.11 297.47 660 265.15 685.42 245.09 654.03 237.12"/><polygon class="b" points="213.56 71.37 226.65 100.99 242.21 72.58 274.42 69.29 252.21 45.72 259.04 14.06 229.76 27.9 201.76 11.63 205.87 43.75 181.74 65.35 213.56 71.37"/><polygon class="b" points="679.73 421.75 658.29 446.03 626.14 442.13 642.6 470.02 628.96 499.39 660.57 492.36 684.29 514.41 687.37 482.17 700 475.14 700 459.63 685.96 453.54 679.73 421.75"/><polygon class="b" points="56.14 244.04 54.03 211.72 79.45 191.66 48.06 183.69 36.84 153.31 19.55 180.69 0 181.47 0 197.39 7.9 206.88 0 234.94 0 237.71 29.2 226.06 56.14 244.04"/><polygon class="b" points="316.64 542.08 286.85 554.77 259.5 537.42 262.36 569.68 237.41 590.32 268.97 597.57 280.89 627.68 297.54 599.9 329.87 597.87 308.59 573.45 316.64 542.08"/><polygon class="b" points="146.05 571.45 126.16 596.9 93.91 594.94 111.97 621.73 100.14 651.79 131.2 642.9 156.13 663.44 157.27 631.15 184.51 613.78 154.15 602.73 146.05 571.45"/></svg>