<svg xmlns="http://www.w3.org/2000/svg" viewBox="0 0 700 700"><defs><style>.a{fill:#b73535;}.b{fill:#7a2d2d;}</style></defs><rect class="a" width="700" height="700"/><path class="b" d="M0,634l46.72,65.28,50.47-70.54,50.48,70.54,50.48-70.54,50.47,70.54,50.48-70.54,50.48,70.54,50.47-70.54,50.48,70.54L501,628.75l50.47,70.54L602,628.75l50.48,70.54L700,632.82v-8.94l-47.27-66.06L700,491.77v-8.94l-47.27-66.05L700,350.72v-8.94l-47.27-66L700,209.67v-8.94l-47.27-66L700,68.62V59.68L657.29,0h-9.71L602,63.75,556.34,0h-9.71L501,63.75,455.39,0h-9.72L400.05,63.75,354.43,0h-9.71L299.1,63.75,253.48,0h-9.72L198.15,63.75,152.53,0h-9.72L97.19,63.75,51.57,0H41.86L0,58.5V69.81l46.42,64.87L0,199.54v11.32l46.42,64.87L0,340.59v11.32l46.42,64.87L0,481.64V493l46.42,64.86L0,622.69ZM602,64.55l50.18,70.13L602,204.8l-50.18-70.12Zm0,141.05,50.18,70.13L602,345.85l-50.18-70.12Zm0,141,50.18,70.13L602,486.9l-50.18-70.12Zm0,141.05,50.18,70.12L602,628l-50.18-70.13ZM501,64.55l50.18,70.13L501,204.8l-50.18-70.12Zm0,141.05,50.18,70.13L501,345.85l-50.18-70.12Zm0,141,50.18,70.13L501,486.9l-50.18-70.12Zm0,141.05,50.18,70.12L501,628l-50.18-70.13Zm-101-423.15,50.18,70.13L400.05,204.8l-50.18-70.12Zm0,141.05,50.18,70.13-50.18,70.12-50.18-70.12Zm0,141,50.18,70.13L400.05,486.9l-50.18-70.12Zm0,141.05,50.18,70.12L400.05,628l-50.18-70.13ZM299.1,64.55l50.18,70.13L299.1,204.8l-50.18-70.12Zm0,141.05,50.18,70.13L299.1,345.85l-50.18-70.12Zm0,141,50.18,70.13L299.1,486.9l-50.18-70.12Zm0,141.05,50.18,70.12L299.1,628l-50.18-70.13Zm-101-423.15,50.17,70.13L198.15,204.8,148,134.68Zm0,141.05,50.17,70.13-50.17,70.12L148,275.73Zm0,141,50.17,70.13L198.15,486.9,148,416.78Zm0,141.05,50.17,70.12L198.15,628,148,557.82ZM97.19,64.55l50.18,70.13L97.19,204.8,47,134.68Zm0,141.05,50.18,70.13L97.19,345.85,47,275.73Zm0,141,50.18,70.13L97.19,486.9,47,416.78Zm0,141.05,50.18,70.12L97.19,628,47,557.82Z"/></svg>