<svg xmlns="http://www.w3.org/2000/svg" viewBox="0 0 700 700"><defs><style>.a{fill:#484949;}.b{opacity:0;}.c{fill:red;}</style></defs><path class="a" d="M687.68,545.72l0,0-.4-.19-2.73-1.34-1-.46L681,542.49l-.87-.41-.06,0-4.27-2-1.52-.69-1.88-.83-1.79-.78-1.7-.73-2.11-.88-1.35-.57-2.43-1-.87-.35-1-.4-.16-.06-2.25-.85-1.17-.43-.94-.34-1.36-.49-1-.36c-1.08-.38-2.15-.74-3.2-1.08-15.38-4.81-32.69-29.81-38.46-25-13.46-1-104.81,39.43-149,91.35l-10.34,9.48h0l-.82.75-.05,0-4.62,4.23h0l-.08.07q-4.92,4.5-9.5,8.67h0l-.39.36h0c-3.09,2.8-6.07,5.5-9,8.1l-.09.08h0c-2.8,2.52-5.53,4.94-8.19,7.29h0l-.17.15-3.94,3.45h0l-.15.14-4,3.47,0,0h0q-3.88,3.35-7.63,6.47l-.18.14h0c-1.26,1-2.51,2.08-3.75,3.09l-.08.06h0c-3.69,3-7.32,5.89-10.93,8.66l-.16.12h0c-1.17.89-2.33,1.78-3.5,2.65h0l-.21.15h0c-3.61,2.69-7.23,5.28-10.92,7.82h0l-.09.07q-1.86,1.28-3.75,2.54h0l-.12.08c-3.77,2.52-7.63,5-11.63,7.44h0l-.13.08q-2,1.26-4.14,2.5l-.05,0h0c-1,.61-2.05,1.22-3.09,1.82l0,0c-4.6,2.68-9.42,5.37-14.52,8.11h0q-4.69,2.52-9.75,5.11H700V552C695.83,549.81,691.71,547.71,687.68,545.72Z"/><path class="a" d="M276,614.9c-14.42,9.61-91.35,41.34-127.88,68.27-.56.58-1.13,1.17-1.72,1.76l-.63.62c-.38.38-.76.76-1.16,1.14l-.85.82-.95.9-1.19,1.12-.05.06c-3.35,3.14-7,6.5-10.95,10.41H295.17c-.3-.8-.59-1.63-.88-2.47l-.27-.79c-.11-.34-.23-.69-.35-1s-.2-.64-.31-1c-.16-.52-.33-1-.49-1.56-.12-.36-.23-.72-.34-1.08s-.21-.66-.3-1-.22-.73-.33-1.1l-.27-.92c-.18-.61-.36-1.23-.53-1.85l-.24-.86c-.11-.43-.22-.85-.34-1.28s-.15-.59-.23-.88c-.14-.55-.28-1.1-.41-1.65-.07-.25-.13-.49-.19-.74-.14-.59-.28-1.18-.41-1.77l-.18-.78-.33-1.53c0-.22-.1-.44-.14-.67-.15-.69-.29-1.39-.42-2.08,0-.2-.07-.4-.11-.59-.1-.54-.19-1.08-.29-1.62,0-.23-.07-.45-.11-.68-.11-.68-.22-1.35-.32-2a.88.88,0,0,0,0-.16c-.1-.68-.19-1.37-.27-2,0-.21,0-.41-.07-.61-.06-.55-.12-1.09-.17-1.64,0-.16,0-.32-.05-.48-.06-.67-.11-1.34-.15-2l0-.45c0-.53-.05-1.05-.06-1.57,0-.18,0-.37,0-.55,0-1.28,0-2.53.06-3.72,0-.17,0-.33,0-.5,0-.47.07-.93.12-1.39,0-.13,0-.26,0-.39.07-.55.15-1.1.24-1.63,0-.12,0-.23.07-.35q.12-.63.27-1.23c0-.14.06-.28.1-.42.13-.49.27-1,.43-1.43,17.6-26.92,18-44,34.23-58.69C309.91,587.55,292.34,603.36,276,614.9Z"/><g class="b"><path class="c" d="M699,1V699H1V1H699m1-1H0V700H700V0Z"/></g></svg>