<svg xmlns="http://www.w3.org/2000/svg" viewBox="0 0 700 700"><defs><style>.a{fill:#31313d;}.b{opacity:0;}.c{fill:red;}</style></defs><path class="a" d="M624.05,516.44C599,496,574.59,471.3,568.32,456.25c-2.6-13-3.91-22.15-20.85-11.73-30,19.55-192.87,87.31-218.93,84.71-7.82,2.6-9.12,9.12,1.3,23.45,6.56,12.18.32,25-5.64,33.72C298.57,603.51,296,603.51,276,614.9c-15.06,8.59-91.35,41.34-127.88,68.27-4.78,5-10.81,10.16-17.51,16.83H700V548.59c-15.21-6.45-31.63-12.68-49-18.31C641.67,527.37,632.48,522,624.05,516.44Z"/><g class="b"><path class="c" d="M699,1V699H1V1H699m1-1H0V700H700V0Z"/></g></svg>