<svg xmlns="http://www.w3.org/2000/svg" viewBox="0 0 700 700"><defs><style>.a{fill:#492e2e;}.b{fill:#332020;}.c{opacity:0;}.d{fill:red;}</style></defs><path class="a" d="M670.62,473.84c-2.61-24.76,10.43-37.79-5.21-43-129-14.34-246.95,74.93-321.23,132.27-32.58,10.43-101.65-33.88-139.44-13-18.24,20.85-5.21,40.4-24.76,45.61-26.06-7.82-39.1,13-23.46,44.31-36,3.85-41.52,34.29-9.77,42.8-5.17,5.83-10.07,11.68-14.54,17.2H700V505.2c-1.65-.31-3.4-.56-5.27-.73C706.46,487.53,695.38,467.33,670.62,473.84Z"/><path class="b" d="M653,475.8c-33.88-22.16-246.3,69.07-299.73,125.1C448.43,522.71,664.76,505.77,653,475.8Z"/><path class="b" d="M199.53,587.87c43-7.82,100.34,15.64,110.77,15.64C272.5,578.75,213.86,565.72,199.53,587.87Z"/><path class="b" d="M327.24,632.18c160,20,312.31-5.28,372.76-32.25V582.38C621,598.32,406.22,633.29,327.24,632.18Z"/><path class="b" d="M157.53,671.72c45.78-7.27,113.93-37.72,147.55-26.51C262.21,620.2,161.74,652.38,157.53,671.72Z"/><path class="b" d="M157.53,671.72c-2.12.33-4.2.62-6.22.86A21,21,0,0,0,157.53,671.72Z"/><path class="b" d="M275.11,623.06c-39.09-24.76-116-7.82-106.86,13C210,611.33,255.56,620.45,275.11,623.06Z"/><path class="b" d="M689.52,521.41c-5.22-15.64-142,10.42-230.66,63.85C591.78,525.32,675.18,546.17,689.52,521.41Z"/><g class="c"><path class="d" d="M699,1V699H1V1H699m1-1H0V700H700V0Z"/></g></svg>