<svg xmlns="http://www.w3.org/2000/svg" viewBox="0 0 700 700"><defs><style>.a{fill:#f2f4f9;}.b{fill:#b9c0d4;}.c{fill:#374189;}.d{fill:#282524;}.e{opacity:0;}.f{fill:red;}</style></defs>
<path class="a" d="M584,483.29c-13.5-15-22.13-45.65-32.63-44.15-65.94,73.11-164.77,131.15-193,154.48-2.89-10.13-22.05-32.14-18.56-54.57-17-11-19.41,44.08-38.91,86.08-6.76,14.49-8.54,25.87-9.36,40.55-7,10.39-14.11,22-21.24,34.32H500.63c49.64-84.64,95.67-160.31,100.2-169.36C600.83,512.19,590.89,494.17,584,483.29Z"/><path class="b" d="M339.75,539.05c-3.49,22.43,15.67,44.44,18.56,54.57a2.11,2.11,0,0,1,.23-.19c.93-13.34-15.27-51.35-19.46-60-1,.78-6.23,3.43-9.22,7.64C332.63,537.51,335.79,536.49,339.75,539.05Z"/><path class="b" d="M354.73,596.9c-33.25-10.68-39.27,72.1-64.39,97.23.72-15.14.76-26.46,1.75-36.64-10.52,24-10.09,35.7-7.15,42.51h91C359.56,668,345.72,617.85,354.73,596.9Z"/>
<path class="b" d="M582.08,489.49C550.65,532.19,443.24,634.29,402.62,700h26.9c62.2-70.16,160.73-188.08,160.73-199.45A58,58,0,0,0,582.08,489.49Z"/>
<path class="c" d="M366.2,678c-8.83-23-15.12-49-14.23-67.28a51.89,51.89,0,0,1-17.22-7.33c-10.24,11.53-17.25,34.53-25.21,55.33.49,16.74,3.48,32,4.8,39.9L313.05,700H352.2c1.35-4.55,2.4-8.09,3.05-10.45A147.36,147.36,0,0,0,366.2,678Z"/>
<path class="d" d="M300.84,625.13a239.39,239.39,0,0,0,11.85-32.5c-39.72,32.72-83.88,43.12-103.34,53.5-21,13.5-70.5,19.5-91.5,46.5-1.24,2.16-2.55,4.64-3.93,7.37H270.24c7.13-12.32,14.27-23.93,21.24-34.32C292.3,651,294.08,639.62,300.84,625.13Z"/>
<path class="d" d="M595.25,472.55c-6-7.5-19.92-16.91-27.42-4.91-55.5,64.5-138,195-157.49,231l-.72,1.37H700V556.18c-25.76-12.6-48.79-24-63.75-33.63C621.25,510.55,602.75,484.55,595.25,472.55Z"/>
<g class="e">
<path class="f" d="M699,1V699H1V1H699m1-1H0V700H700V0Z"/></g></svg>