<svg xmlns="http://www.w3.org/2000/svg" viewBox="0 0 700 700"><defs><style>.a{fill:#fff;}.b{fill:#ccc;}.c{opacity:0;}.d{fill:red;}</style></defs><path class="a" d="M289.77,632.83c18.05-16.59,45.58-53.61,60.3-71.84-4.6-12.07-11.59-28.84-19.3-48.52-33.35,24.93-99,64.84-106.48,68.56-11.73,5.86-4.89,36.16-7.82,53.75C204.53,644.21,163.93,675,130,700H291.87S283.91,649.44,289.77,632.83Z"/><path class="a" d="M661.17,524.34c-14.66-11.73-50.82-58.64-52.78-73.3-.23-11.72-14.14-7.3-18.57,1-25.41,42-166.15,112.4-172,119.24-6.84,11.73,7.82,63.53-1,80.15a67.65,67.65,0,0,1-26.39,10.75c-.95,10.48-5.85,25.12-10.85,37.85H700V547.5c-18.79-5-40.41-10.74-43.71-13.39Z"/><path class="b" d="M569.27,474.44c9.19-8,16.41-15.57,20.55-22.43,3.64-6.79,13.68-11,17.27-5.76-6.24-12.24-33.73-13.17-59-10,1.83,7,3.72,13.93,5.66,20.61C558.78,462.72,564,468.6,569.27,474.44Z"/><path class="b" d="M255.56,659.22c-2.93-8.8-11.73-59.62-11.73-59.62-4.88-12.71-15.63-17.59-18.57,0,2,25.41-10.75,60.6-30.29,83.08,8.79-2,44.95-32.26,44.95-32.26,2.9,2.3,4.16,4.83,4.89,4.89-1.95,7.82-7.82,11.73-19.55,21.5.67,2,6.37,12.23,13.65,23.19h4.7c-2.71-6.61-5.66-13.45-9.55-21.23C237,677.79,249.7,667,255.56,659.22Z"/><path class="b" d="M441.26,582c-3.91-10.76-10.75-7.82-17.59,3.91-1,18.57,8.8,56.68-8.8,104.57,20.53-27.36,18.57-84,28.35-63.53,3.66,4.89,18.36,39.85,34.84,73h7C465.28,663.1,447,609.2,441.26,582Z"/><path class="b" d="M529.92,700h13.66c38.53-53.66,96-133.36,108.8-157.09C648.51,549.1,571.22,645.84,529.92,700Z"/><g class="c"><path class="d" d="M699,1V699H1V1H699m1-1H0V700H700V0Z"/></g></svg>